<?xml version="1.0" encoding="UTF-8"?>
<svg xmlns="http://www.w3.org/2000/svg" viewBox="-2 318.34 964 323.31">
  <!-- Generated from amCharts geodata | Mercator projection -->
    <path d="M98.54,540.52L98.15,539.09L97.93,537.53L98.92,537.4L100.87,537.66L101.91,539.22L101.78,540.65L100.87,541.17L99.06,541.3Z" fill="#dadada" stroke="#fff" stroke-width="0.5" id="MY-16" data-name="Putrajaya"/>
    <path d="M762.92,417.66L762.59,418.75L762.64,419.66L762.93,419.99L763.1,421L763.76,421.71L764.22,422.69L764,423.04L763.1,423.34L762.64,423.88L763.16,424.11L762.77,424.86L762.13,424.17L761.66,423.27L760.75,423.18L760.17,423.3L759.69,424.03L759.11,424.52L758.42,424.59L758.39,424.22L758.82,423.6L759,422.27L759.79,420.69L760.69,419.26L761.99,417.8ZM767.19,423.33L766.34,423.38L766.6,422.65L767.08,422.75Z" fill="#dadada" stroke="#fff" stroke-width="0.5" id="MY-15" data-name="Labuan"/>
    <path d="M102.27,532.83L100.83,533.21L98.4,532.55L98.15,531.16L97.89,530.65L96.72,529.61L95.94,528.18L95.94,527.01L96.98,525.71L97.68,523.92L98.29,523.83L99.31,524.17L99.82,523.65L100.89,524.18L101.25,524.1L101.99,523.35L102.67,523.37L102.33,523.96L103.25,524.81L103.44,525.87L102.79,526.08L102.88,526.95L102.53,527.86L102.62,528.74L103.33,529.74L103.05,530.96L103.15,532.02L102.47,532.32Z" fill="#dadada" stroke="#fff" stroke-width="0.5" id="MY-14" data-name="Kuala Lumpur"/>
    <path d="M523.11,593.1L523.62,593.51L523.19,594.09L523.6,595.06L524.03,595.44L523.92,597.39L524.84,598.07L524.86,599.54L525.08,600.27L524.45,600.48L523.84,600.95L523.27,599.65L523.49,598.13L522.88,597.52L522.06,597.53L521.93,596.91L521.41,596.5L521.59,595.93L522.25,595.37L522.1,595.01L522.66,593.95L522.7,593.37ZM708.54,456.89L709.95,457.23L710.71,457.65L711.86,459.14L712.44,458.94L712.9,459.08L713.88,459.71L715.2,461.43L717.37,465.22L717.21,467.18L717.33,467.45L718.36,468.4L717.75,470.55L717.82,472.15L718.17,472.42L719.39,472.72L720.76,472.08L722.45,472.61L722.83,472.47L723.38,471.69L724.17,471.69L724.47,472.07L724.55,473.29L724.76,474.24L725.57,475.99L726.74,477.94L728.47,478.14L729.24,478.93L729.59,479.89L730.67,481.62L731.85,482.37L733.45,482.63L733.61,483.14L732.78,484.05L732.72,484.4L733.52,484.59L735.5,483.97L737.74,482.64L738.87,481.56L739.71,480.49L740.52,479.16L742.11,478.04L742.49,477.28L741.42,477.41L741.49,476.58L742.11,476.02L743.93,473.32L744.45,471.78L744.31,471.69L743.15,472.81L742.62,472.54L742.72,471.78L744.36,469.9L745.64,467.33L745.71,464.92L745.4,464.73L743.78,464.37L743.25,464.04L742.91,463.41L742.64,460.27L742.72,458.47L742.22,453.92L742.03,452.68L740.97,450.91L740.94,450.01L741.15,449.07L741.87,448.64L743.25,448.5L743.79,448.05L744.53,446.17L745.17,445.75L746.7,445.35L749.37,444.97L750.02,444.63L751.52,441.77L752.46,441.29L752.82,442.49L751.49,444.07L751.03,445.89L751.02,447.13L751.55,447.28L751.8,444.33L752.26,443.54L752.69,443.75L752.51,445.05L753.28,446.05L753.83,446.56L753.18,448.27L753.65,449.81L753.46,451.17L753.83,451.95L753.94,453.09L754.12,453.52L754.15,454.57L754.37,455.29L755,456.33L756.6,461.53L756.41,463.12L756.8,464.68L756.59,465.8L757.33,466.52L758.94,466.32L761.48,467.24L763.38,467.1L763.75,467.38L764,468.69L765.52,468.5L766.51,469.11L766.77,469.81L767.22,470.25L767.78,470.4L768.81,469.89L769.52,469.22L769.57,468.34L768.92,467.59L768.36,466.51L766.59,465.17L765.77,464.26L765.28,463.04L765.53,462.19L765.25,461.48L765.26,460.35L764.91,459.9L765.05,458.81L764.89,458.22L765.66,457.12L765.69,456.17L765.88,455.59L765.66,454.19L764.69,453.51L764.34,453.1L764.66,452.63L764.74,451.88L764.22,451.4L764.05,450.88L764.28,449.89L764.19,449.13L763.93,448.67L763.15,447.98L763.01,447.59L763.32,445.9L762.74,445.15L761.19,444.12L760.46,443.47L760.56,442.92L759.91,442.74L759.23,441.81L759.03,441.01L758.45,440.55L760.95,439.67L761.22,439.17L761.09,438L761.72,437.73L762.57,437.68L763.08,438.08L763.67,439.79L764.29,440.25L765.91,440.6L767.13,441.41L767.84,441.44L769.09,441.21L769.98,440.82L770.59,440.21L770.41,439.1L770.99,438.95L772.37,437.52L773.42,437.32L774.66,437.93L775.76,438.22L776.66,437.96L778.67,436.82L781.14,436.51L781.68,436.65L782.18,437.43L782.33,438.52L782.27,439.13L782.85,440.51L783.11,442.22L783.75,444.51L783.7,446.89L782.68,448.04L781.01,452.1L778.98,454.18L778.61,455.16L778.73,456.26L779.63,457.56L779.59,458.84L780.11,459.83L780.07,460.61L779.39,461.17L779.31,461.81L780.19,463.17L780.85,464.71L780.77,465.55L780.48,466.54L780.55,467.27L781.58,468.17L783.43,468.66L784.2,469.46L784.43,470.1L784.46,471.09L783.24,473.37L782.77,476.41L783.45,478.84L784.65,479.5L784.94,479.58L784.55,482.13L783.28,486.29L782.48,487.6L781.66,488.2L780.88,488.5L779.58,488.54L779.07,488.94L779.3,489.55L779.92,490.29L781.44,491.24L781.9,492.04L781.64,493.51L780.41,496.37L779.68,499.29L779.59,502.23L780.04,505.12L781.1,506.48L781.47,509.69L782.96,511.86L783.26,512.7L782.45,514.22L781.77,514.3L781.22,512.66L780.34,512.4L780.03,512.51L778.29,515.96L777.7,518.45L777.45,519.04L777.41,521.53L777.56,522.34L777.46,523.12L777.01,524.18L777.58,524.75L779.1,525.76L779.04,526.58L776.76,528.76L776.65,529.28L776.79,530.23L776.7,531.49L776.3,532.23L775.01,533.09L773.26,533.07L772.61,533.26L772.04,533.9L771.81,534.43L770.92,535.25L767.94,535.49L767.28,535.33L766.92,533.78L765.51,532.27L764.84,534.41L763.67,535.7L761.91,536.41L761.06,537.43L759.76,537.99L759.34,540.69L758.39,541.83L757.35,542.39L756.52,543.46L757.21,543.87L758.27,543.87L758.71,544.55L758.15,545.56L758.2,546.79L757.87,547.25L756.71,547.89L756.44,548.25L756.49,549.43L757.09,551.2L756.77,552.42L755.93,553.08L755.96,553.64L756.54,554.19L756.77,554.78L757.7,554.76L758.38,554.15L759.18,553.86L759.72,553.97L760.75,555.36L761.6,556.16L761.73,557.2L762.93,557.69L763.08,558.19L762.98,559.21L762.45,559.77L760.85,560.57L759.25,560.35L757.82,560.66L756.66,561.58L756.17,562.18L755.69,563.83L754.26,563.72L753.74,563.79L752.72,564.75L752.25,565.56L751.56,565.79L750.91,566.39L750.46,566.25L749.84,565.57L749.24,565.72L748.72,566.58L748.47,567.83L748.62,568.35L749.27,568.85L749,569.63L748,569.92L747.2,570.85L746.7,571.02L745.39,570.9L742.26,571.31L741.6,571.69L741.48,572.55L741.1,573.39L740.78,575.19L740.66,576.5L740.78,577.4L741.13,578.06L741.85,578.15L742.2,578.54L742.29,579.25L741.75,579.94L741.73,581.43L742.42,582.85L742.92,582.89L744.66,581.9L745.32,582.07L745.9,582.5L746.03,583.09L744.31,584.65L743.98,585.3L744.05,586.19L745.2,587.23L745.3,587.56L744.2,588.56L742.58,588.63L741.54,589.77L741.17,590.62L740.22,590.8L739.39,590.19L738.22,590.19L737.61,590.6L737.8,591.34L737.7,591.76L736.38,592.8L736.97,593.61L737.15,594.27L736.94,595.48L737.33,596.8L736.98,597.67L737.04,598.66L736.9,599.5L736.53,600.1L735.56,600.83L735.06,602.22L734.53,603.07L732.19,604.41L732.15,605.22L731.71,606.26L732.13,607.41L731.9,608.5L731.01,609.76L730.65,610.59L729.9,611.44L728.55,611.25L726.46,609.55L725.32,609.47L721.89,607.26L721.48,607.28L720.68,608.51L718.71,609.08L717.27,609.7L716.28,610.47L715.55,610.65L714.34,610.6L713.71,610.92L712.7,612.36L712.26,612.62L711.77,611.91L710.16,610.95L709.32,609.99L708.98,609.86L707.58,610.28L706.91,609.91L706.16,609.92L703.24,610.79L702.45,610.74L701.27,610.41L699.77,610.99L699.13,612.03L694.94,613.62L693.62,614.32L693.37,614.85L693.79,615.36L693.86,616.16L693.17,617.46L692.83,617.83L689.66,619.22L687.82,619.73L685.74,621.79L684.91,621.68L684.13,621.87L683.76,621.58L683.76,620.5L682.56,619.85L681.7,617.79L680.72,617.51L679.69,616.78L678.47,617.17L677.5,617.19L675.84,617.81L674.98,618.6L674.11,618.7L673.57,618.34L672.6,617.15L671.31,616.61L670.74,615.15L669.47,614.48L666.66,613.63L664.11,613.44L663.15,613.87L661.79,614.01L659.98,613.4L658.88,611.58L657.89,610.99L655.96,611.97L654.1,612.58L652.07,612.59L651.83,612.22L651.82,611.42L652.28,610.6L654.88,609.44L655.04,609.25L655.44,607.52L656.49,606.41L656.08,605.38L654.59,604.92L653.11,604.21L652.73,604.32L652.24,604.87L651.53,604.89L649.46,604.67L648.66,604.09L648.07,603.9L647.16,604.09L646.64,604.91L645.92,605.51L645.65,606.14L643.51,606.02L643.12,605.46L641.94,604.96L641.11,605.3L640.08,604.94L638.41,605.46L637,605.28L636.25,604.71L635.26,605L633.58,604.71L629.39,604.45L628.58,604.18L627.79,604.42L626.32,605.44L625.85,606.48L625.44,606.89L624.15,607.1L621.55,607.98L620.01,607.87L617.88,609.57L616.44,610.09L615.19,610.24L614.19,611.08L613.95,612.45L614.11,612.7L615.22,613.28L615.31,613.63L614.42,616.09L613.1,617.36L612.59,618.94L612.66,619.9L612.09,620.68L612.36,621.62L612.17,622.52L611.37,623.65L611.75,624.62L611.55,625.25L610.86,625.59L608.77,625.57L606.27,626.03L602.39,626.39L601.38,626.98L600.85,628.09L599.93,628.88L599.02,629.35L598.4,630.38L598.43,631.18L598.22,632.11L597.35,632.47L596.17,632.33L594.63,631.66L594.22,632.48L593.94,632.48L593.05,631.52L591.58,631.98L590.99,631.97L590.56,631.3L588.1,630.29L587.1,630.71L584.98,632.56L584.36,632.88L583.63,632.81L582.92,632.95L582.99,634.41L582.64,634.86L581.58,634.45L580.73,632.22L580.07,631.47L579.06,630.83L578.26,630.78L577.27,631.57L576.72,631.81L575.61,631.95L574.22,631.68L572.72,630.7L567.88,629.25L567.01,628.49L566.22,628.75L565.08,629.38L562.38,629.99L558.47,630.28L556.77,630.95L552.31,631.39L551.12,631.23L550.59,631.59L550.27,632.1L550.17,632.89L548.27,635.03L546.95,634.93L545.88,635.21L545.77,635.72L546.22,636.56L546.11,636.99L545.57,637.29L545.1,637.04L544.59,636.16L543.82,636.22L543.75,637L543.18,637.35L541.85,637.12L540.41,638.18L539.16,638.48L538.46,638.2L538.18,637.24L537.43,637.17L537.38,638.26L537.04,638.8L534.53,639.66L532.55,638.92L530.48,638.52L528.35,636.93L527.86,636.23L528.08,635.37L527.67,635.14L526.57,634.99L526.46,633.69L525.87,632.88L525.23,632.86L524.34,633.27L523.58,633.03L523.08,632.64L520.42,632.78L519.99,632.43L520.2,631.77L520.23,630.25L519.41,629.98L518.57,628.5L518.56,627.57L518.38,627.09L517.94,626.83L517.02,626.89L516.64,626.24L516.72,625.12L516.03,624.01L515.69,623.67L513.95,622.85L512.27,623.02L511.35,622.9L510.68,622.13L508.66,622.55L508.71,622.04L509.62,621.21L509.83,620.86L509.65,619.89L509.42,619.58L507.66,618.79L506.83,618.15L505.84,618.17L505.6,617.96L504.68,614.84L504.64,613.27L503.59,612.22L502.92,611.92L499.51,612.05L498.34,611.8L498.21,610.18L498.63,608.96L498.27,608.94L497.45,609.75L496.89,609.6L495.93,607.96L491.61,603.6L491.27,602.81L490.28,602.46L489.61,601.48L490.21,596.74L491.01,595.02L491.01,594.34L490.58,593.87L489.42,593.45L487.99,593.31L487.06,592.92L486.71,592.45L486.17,591.12L485.01,590.78L484.79,590.52L484.75,589.74L484.43,589.28L484.04,587.47L484.68,587.07L485.22,587.31L485.97,586.65L486.5,585.15L487.97,584.26L489.12,582.25L489.68,582.49L489.36,583.24L489.63,583.71L490.17,584.05L489.55,584.49L489.57,585.73L489.36,586.07L489.52,587.77L489.85,588.43L491.2,589.68L491.07,590.45L491.45,590.78L493.13,591.66L495.61,592.52L495.85,593.21L496.22,593.02L498.95,594.04L499.39,594.83L500.88,595.71L500.37,596.81L501.14,597.3L502.38,597.72L502.38,598.72L502.97,599.02L503.64,598.98L504.65,598.23L505.46,598.62L505.51,599.39L506.36,598.63L506.97,598.41L512.56,598.4L516.31,598L516.53,598.29L516.42,599.15L517.24,599.61L518.27,599.7L518.55,599.93L518.64,600.87L519.07,601.12L518.95,601.64L519.35,602.34L519.88,602.16L520.85,601.51L521.64,600.67L521.48,599.59L521.03,598.94L521.72,598.59L521.9,598.15L522.74,597.67L523.37,598.17L523.08,599.76L524.12,602.03L524.42,603.01L524.99,603.29L525.42,603.23L525.41,603.93L525.96,603.78L526.45,603.93L526.39,604.73L525.87,605.02L526.15,605.44L526.77,605.26L527.02,604.53L527.33,604.28L528.39,604.64L528.09,605.29L527.67,604.89L527.37,605.13L527.45,606.39L527.73,606.96L528.42,607.52L528.96,607.75L529.8,607.58L530.39,607.23L530.9,607.75L531.77,607.67L531.87,607.04L531.09,606.88L531.44,606.12L531.08,605.71L530.67,605.97L530.32,606.78L529.83,606.43L529.88,605.99L530.69,604.91L531.84,605.7L532.48,605.71L532.84,605.24L533.12,603.92L534.34,603.35L535.56,603.18L536.5,603.36L539.54,604.83L540.96,605.36L542.07,605.59L542.41,605.83L543,607.39L542.97,608.52L542.79,608.99L541.2,609.73L540,610.55L538.47,611.15L538.17,611.5L538.05,612.46L538.24,612.84L538.89,613.35L539.44,613.26L540.41,612.48L541.1,612.15L542.17,612.58L542.27,612.3L541.15,611.87L540.52,612L539.45,612.89L538.92,613.06L538.51,612.59L538.38,611.88L538.73,611.53L540.11,611.15L542.37,610.14L543.44,609.42L543.96,608.36L544.2,606.58L544.08,605.21L545.09,604.3L545.82,604.31L548.6,605.7L549.39,606.28L552.6,607.03L554.47,608.18L555.28,608.77L555.83,609.4L556.68,611.02L557.27,611.74L558.18,612.56L558.84,612.92L560.4,613.19L561.55,613.54L562.99,614.61L563.87,614.97L565.06,614.47L566.23,613.42L567.88,613.24L568.47,613.72L568.99,615.39L569.26,615.83L570.75,616.58L571.24,616.62L571.38,616.14L570.8,615.52L570.59,614.91L570.56,613.53L569.97,612.99L568.31,612.25L567.3,612.17L565.45,612.6L564,613.61L562.07,612.1L559.35,611.16L558.37,610.22L558.1,609.02L557.31,607.7L556.18,606.95L555.28,606.96L555.53,606.11L555.27,604.57L555.55,604.16L556.38,600.69L556.89,599.95L557.5,599.37L559.24,599.51L560.48,599.05L562.58,599.52L562.62,600.38L562.95,601.26L563.82,601.86L564.53,601.81L565.69,601.25L566.41,602.04L567.08,602.39L568.56,602.25L568.41,601.69L567.12,601.77L566.47,600.98L565.82,600.66L565.26,600.66L564.14,601.29L563.71,601.17L563.35,600.56L563.41,599.44L563.15,598.78L562.79,598.47L561.61,598.26L560.93,597.34L560.87,596.7L559.76,595.55L560.09,594.84L560.58,594.29L561.78,593.94L562.19,593.36L562.18,592.45L561.3,593.74L560.7,593.81L560.52,593.2L560.58,592.44L561.09,591.06L563.78,585.9L563.93,584.15L564.29,583.04L565.1,581.34L565.82,578.95L566.87,579.98L567.91,580.4L568.75,580.44L569.39,580.09L569.9,580.27L570.37,580.84L571.07,580.74L571.72,580.29L571.77,579.81L572.59,579.05L572.5,578.28L572.7,577.97L573.01,576.06L573.37,576.06L574.2,576.65L574.85,576.59L575.74,576.12L575.21,575.76L574.19,576.29L573.7,575.64L573.97,574.46L574.62,575.1L575.25,575.4L575.6,574.72L575.39,574.13L575.04,573.71L574.28,573.45L574.3,572.89L573.34,573.05L573.16,573.64L572.67,573.34L572.84,572.42L572.44,571.29L571.71,570.51L570.52,569.59L570.37,568.74L571.42,567.3L571.34,566.76L570.6,566.14L571.56,565.52L572.83,567.13L573.86,567L574.5,565.78L575.74,566.03L576.25,565.81L577.02,565.16L578.01,565.87L578.9,566.18L578.99,565.66L578.08,564.98L576.88,564.34L575.83,563.31L575.64,562.85L575.71,561.31L575.55,560.92L574.66,559.8L574.92,559.57L576.51,559.8L577.73,560.4L578.4,560.51L579.25,560.25L580,559.61L580.42,561.24L582.12,562.39L582.81,562.16L583.06,561.19L584.75,562.1L585.02,561.68L584.13,561.49L583.77,560.67L582.84,560.74L582.49,561.9L582.13,562.06L581.47,561.35L580.75,560.86L580.69,559.69L580.38,559.26L579.63,559.13L578.73,559.76L578.22,559.8L576.44,558.81L575.02,557.65L574.91,557.42L575,556.19L576.06,552.8L576.44,551L576.59,549.48L577.42,548.92L578.74,548.46L579.18,547.42L579.53,547.18L582.2,546.15L584.8,544.76L585.34,544.2L585.75,543.06L586.6,542.05L587.29,542.05L587.71,543L589.66,543.96L591.76,544.65L591.93,544.35L588.7,542.69L589.06,542.43L590.22,542.12L595.52,541.07L597.77,540.73L598.86,540.87L604.46,540.04L612.18,538.31L617.95,536.59L629.17,534.16L632.15,533.65L632.95,533.9L633.5,533.7L633.89,533.23L634.84,532.79L637.69,531.89L641.39,531L646.93,529.92L649.61,529.11L652.31,527.75L653.68,526.84L654.67,526L655.62,524.82L656.99,522.73L656.08,521.59L657.27,520.51L659.67,518.87L660.91,517.7L662.87,514.29L664.9,512.76L667.46,510.34L668.19,509.18L667.72,508.38L668.27,507.58L671.58,504.24L673.67,500.71L674.19,499.56L674.01,498.56L674.59,497.62L676.02,496.55L680.41,493.75L686.12,489.02L687.3,487.87L690.62,484.24L691.66,482.87L693.37,479.68L695.24,477.67L698.61,473.3L699.75,471.44L700.51,469.86L700.86,468.53L700.38,467.86L701.49,466.47L702.13,463.94L702.21,462.49L702.01,461.1L700.7,457.19L701.45,456.54L706.22,456.92ZM571.9,544.31L572.42,544.69L573.43,546.89L574.28,547.63L574.48,548.09L574.15,550.12L574.35,552.94L574.31,554.41L574.03,555.72L574.16,558.27L574.04,559.65L574.93,561.08L575.34,563.73L575.65,564.37L576.2,564.88L576.05,565.38L575.52,565.57L574.76,565.3L574.12,565.43L573.64,566.42L573.31,566.63L572.42,565.54L572.45,564.5L572.19,563.84L571.54,563.19L570.31,562.55L570.23,560.84L570.73,558.52L569.3,552.05L569.27,549L569.68,547.06L570.17,545.94L570.89,544.83ZM567.74,562.18L568.02,563.06L569.75,563.88L571.54,564.43L571.53,564.93L570.74,565.57L570.38,566.18L570.47,566.55L571.11,566.86L571.22,567.22L570.36,567.59L570.24,568.19L569.06,569.86L569.05,571.96L569.35,573.57L568.99,573.9L568.18,574.13L567.82,574.02L567.43,572.74L566.75,571.85L565.76,571.49L564.92,572.25L564.76,571.79L564.92,569.38L564.65,567.61L564.56,565.7L565.24,564.2L566.17,563.14ZM574.81,548.48L574.31,546.73L575.38,546.2ZM530.59,601.48L531.72,601.83L532.06,602.45L532.34,603.59L532.75,604.17L532.61,605.2L532.12,605.6L530.97,604.8L530.54,604.76L529.82,605.8L529.73,606.55L530.06,606.87L530.57,606.72L530.79,606.06L531.32,606.06L531,606.58L531.01,606.95L531.27,607.11L530.82,607.64L530.54,607.23L530.29,607.18L529,607.71L528.44,607.48L527.87,606.97L527.46,606.09L527.45,605.17L528,605.4L528.33,605.24L528.56,604.7L528.13,604.26L529.2,604.14L529.59,603.61L529.12,602.43L529.15,602.12L529.76,601.73ZM519.53,597.76L520.62,597.92L520.72,598.47L520.3,599.23L521.41,600.64L520.63,601.53L519.34,601.78L519.22,601.18L518.73,600.66L518.8,599.98L518.58,599.59L517.09,599.31L516.77,598.7L517.15,598.22ZM531.24,595.86L531.83,596.22L532.34,597.16L531.7,597.36L531.01,597.95L530.62,599.16L530.7,599.8L530.11,599.92L530.29,600.64L528.79,602.04L528.81,602.87L529.01,603.72L527.22,604.05L526.58,603.98L525.54,603.25L524.5,602.95L524.27,601.97L523.84,601.02L524.49,600.53L524.91,600.7L525.19,600.25L524.94,599.63L524.95,598.86L525.66,598.6L526.61,598.78L527.18,599.4L528.2,597.95L528.33,596.84L529.63,596.61L530.03,597.19L530.66,597.08L531.2,596.75L530.9,596.1ZM573.28,573.65L573.42,573.16L574.24,573L574.22,573.57L575.03,573.77L575.38,574.22L575.07,574.66L574.59,574.79L574.31,574.28L573.66,574.51L573.67,575.3L572.66,575.64L572.16,576.11L572.01,576.56L572.08,577.4L571.77,577.84L571.14,577.63L570.08,576.81L567.65,576.19L566.62,576.37L565.91,576.33L564.51,576.93L563.29,575.87L563.69,574.51L564.44,574.22L565.54,573.26L566,572.28L566.45,572.14L566.96,573.27L567.6,574.2L568.53,574.4L569.34,573.99L569.71,572.86L569.64,571.1L569.39,569.82L570.5,570.11L571.68,570.82L572.25,571.34L572.7,572.47L572.53,573.44L572.96,573.84Z" fill="#dadada" stroke="#fff" stroke-width="0.5" id="MY-13" data-name="Sarawak"/>
    <path d="M851.55,328.85L852.22,328.1L851.65,327.94L851.88,326.58L852.39,325.4L851.97,323.84L852.64,323.24L853.4,322.88L854.2,323.02L855.01,322.72L856.07,321.67L856.41,320.87L856.72,321.31L857.41,321.27L857.94,320.55L858.32,320.48L858.91,320.95L859.56,320.53L860.48,320.34L861.82,320.96L862.82,321.08L863.46,322.21L863.38,322.62L862.41,323.33L862.42,323.76L861.85,324.65L862.01,325.21L861.73,325.74L861.89,326.2L862.76,325.99L862.86,326.8L862.33,327.73L861.85,328.05L861.75,328.91L861.02,329.26L861.13,327.56L860.39,328.11L859.8,329.17L858.43,329.14L858.06,328.92L856.73,329.43L855.73,330.25L853.65,331.4L853.45,332.57L852.76,332.58L851.96,332.06L852.07,330.43L852.6,329.93L851.96,329.66ZM843.85,327.95L842.24,328.79L841.82,328.33L842.29,327.59L842.44,326.29L842.79,325.52L843.19,325.09L843.46,324.02L843.92,324.1L845.03,323.47L845.7,323.85L847.36,322.81L848.09,322.52L848.48,322.02L848.58,321.24L848.99,320.66L849.33,320.65L849.8,321.47L850.09,322.44L849.82,323.74L850.17,324.54L850.05,324.81L849.07,324.47L848.63,324.05L848.89,323.37L848.02,323.09L847.41,323.89L847.29,324.58L847.55,325.07L848.09,325.39L848.39,326.26L847.97,326.39L846.87,325.95L845.62,326.78L844.72,326.47L844.26,326.48L844.18,327.03L843.34,326.99L843.23,327.45ZM784.65,479.5L783.45,478.84L782.77,476.41L783.24,473.37L784.46,471.09L784.43,470.1L784.2,469.46L783.43,468.66L781.58,468.17L780.55,467.27L780.48,466.54L780.77,465.55L780.85,464.71L780.19,463.17L779.31,461.81L779.39,461.17L780.07,460.61L780.11,459.83L779.59,458.84L779.63,457.56L778.73,456.26L778.61,455.16L778.98,454.18L781.01,452.1L782.68,448.04L783.7,446.89L783.75,444.51L783.11,442.22L782.85,440.51L782.27,439.13L782.33,438.52L782.18,437.43L781.68,436.65L781.14,436.51L778.67,436.82L776.66,437.96L775.76,438.22L774.66,437.93L773.42,437.32L774.13,435.9L775.24,435.39L776.2,435.2L776.98,434.08L777.94,433.05L778.32,431L778.21,429.75L779.13,428.69L779.47,427.81L780.11,427.73L779.92,426.58L780.43,425.82L779.79,425.5L778.79,427.3L778.16,427.6L778.24,426.72L777.91,426.61L776.74,426.97L776.18,426.46L775.47,426.52L774.49,425.66L772.17,424.22L772.51,423.78L772.48,423.23L771.85,422.54L771.41,422.84L771.38,423.31L769.71,422.19L770.31,421.48L770.68,420.38L769.75,420.85L769.52,421.76L769.08,422.1L767.85,422.08L768.83,420.83L769.25,419.05L769.28,417.15L769.99,416.44L771.01,416.33L771.87,415.79L775.32,412.05L777.87,410.08L778.48,409.31L779.4,407.71L780.22,405.65L781.34,405.97L781.55,406.42L780.78,408.61L781.59,409.34L782.48,409.8L783.52,410.06L787.34,410.55L789.33,410.45L791,409.93L791.97,409.52L793.11,408.77L794.01,407.6L794.35,406.59L794.86,403.6L794.96,400.67L795.35,399.71L797.43,398.9L798.68,398.25L800.35,397.1L800.65,396.11L801.69,395.86L801.69,395.52L802.17,394.71L802.43,393.92L801.91,392.29L802.31,391.24L802.35,390.13L802.96,388.6L803.48,388.5L804.35,387.58L804.9,387.91L805.44,387.57L805.54,385.84L805.46,385.01L805.86,384.56L806.47,383.15L805.85,382.66L805.14,383.63L804.23,382.2L804.95,381.8L805.46,381.73L806.99,380.41L807.32,379.55L807.88,379.07L808.44,378.29L809.1,376.64L810.16,375.53L810.91,375.02L811.39,373.98L811.82,373.67L813.41,373.23L814.21,372.13L814.66,372.22L814.52,372.79L815.78,372.75L816.25,372.29L815.69,371.57L815.92,370.79L815.44,369.91L816.23,369.28L816.46,369.73L817,369.43L817,369.05L816.53,368.39L818.03,367.79L820.96,365.9L823.57,364.06L824.31,362.96L824.71,361.1L826.54,358.75L826.73,357.92L827.97,356.24L828.19,355.61L828.68,355.22L829.56,354.98L830.21,354.61L831.53,352.65L831.65,352.21L831.56,351.19L831.24,349.87L830.82,349.1L831.38,348.7L831.91,347.39L832.86,347.08L832.67,346.67L831.58,346.26L831.38,344.96L832.79,344.46L833.43,343.85L834.61,341.73L834.71,341.25L834.41,340.54L834.52,340.23L835.53,339.93L835.52,338.89L836.6,336.52L836.96,336.5L838.14,337.63L839.85,339.61L840.63,339.86L841.21,340.9L841.07,341.66L842.24,343.77L842.11,344.29L841.69,344.4L840.84,343.66L840.16,343.83L839.74,344.66L838.86,343.96L838.69,344.89L839.23,345.59L839.61,345.33L840.73,345.03L842.06,345.33L841.14,345.98L841.14,346.22L842.01,346.95L841.75,348.45L842.07,349.52L840.13,351.39L838.46,354.77L838.1,355.33L837.17,356.32L836.93,358.57L837.02,359L838.8,359.69L839.74,359.7L841.85,358.86L841.88,357.94L842.06,357.17L843,356.92L844.59,354.88L845.59,354.8L846.17,354.07L848.08,352.9L848.23,352.03L847.8,351.45L847.89,350.76L848.81,349.81L848.76,349.26L849.63,348.71L850.4,347.25L850.29,346.73L851.07,346.36L851.47,345.95L851.77,345.14L851.72,344.29L851.12,343.7L850.56,343.59L850.73,341.9L850.38,341.45L850.62,340.71L851.49,340.97L851.58,341.45L852.55,341.36L852.63,340.73L851.76,340.07L851.91,339.48L852.6,338.98L853.95,338.38L854.96,338.93L855.57,338.68L855.24,337.89L855.51,337.66L856.49,337.63L857.23,338.63L857.8,338.93L858.29,339.63L858.4,340.15L859.47,340.84L860.04,340.99L861.24,340.98L861.16,341.78L861.47,342.57L861.63,343.63L861.29,344.45L861.4,344.93L860.37,345.7L860.53,346.51L859.86,347.22L860.03,347.7L860.49,347.85L860.79,348.64L861.04,350.11L861.49,350.54L862.39,351.01L862.92,351.7L862.81,352.31L861.95,353.04L862.22,354.17L862.74,355.33L863.29,357.19L864.17,357.55L864.63,356.95L865.44,357.63L866.33,357.01L866.75,357.59L867.98,357.79L868.85,359.74L869.86,360.25L871.13,360.06L872.12,360.23L873.06,358.36L874.1,356.75L874.52,356.43L874.75,357.86L875.18,358.97L876.31,360.34L876.01,361.06L878.62,362.43L879.85,362.32L880.2,362.75L881.34,363.38L885.31,366.52L885.07,367.61L884.37,368.41L884.27,369.94L884.36,370.74L884.73,371.71L884.81,372.63L884.5,373.9L883.79,375.83L883.57,376.16L882.41,375.88L881.11,375.8L878.67,377.4L877.54,378.85L878.28,379.26L878.74,379.85L879.07,380.77L880.06,381.8L881.1,383.84L881.1,384.78L879.95,385.31L879.55,386.17L879.54,387.39L879.75,387.78L878.52,388.81L877.57,388.7L877.27,390.21L876.94,389.52L876.48,389.84L876.6,390.98L877.06,390.65L877.55,391.17L874.56,392.73L872.98,393.07L872.06,394.07L872.87,394.16L873.51,393.33L878.14,392.11L879.61,392.61L882.27,391.95L883.77,392.43L884.69,392.54L886.77,392.03L886.03,391.05L886.06,390.49L887.71,390.46L889.38,390.65L890.37,390.61L891.93,390.27L892.86,389.8L893.32,388.96L892.94,388.51L893.66,387.74L894.3,387.47L895.34,386.58L895.73,385.98L896.46,385.37L896.51,384.67L897.16,384.26L897.88,384.56L898.38,384.53L898.6,386.18L899.12,386.15L899.92,385.69L900.22,385.95L899.65,387.48L900.76,389.08L901.29,389.49L901.24,389.94L900.65,390.45L900.37,391.19L901.88,392.24L902.85,392.17L902.65,393.3L903.01,393.88L903.52,393.89L904.43,394.79L903.96,395.37L902.64,395.74L901.98,396.09L901.78,396.91L900.75,397L899.42,397.86L898.77,397.72L898.33,396.49L897.4,397.09L895.75,397.07L895.68,397.61L894.85,397.6L893.81,397.27L892.85,397.89L893.49,398.57L892.33,399.1L893.78,400.44L894.4,400.42L895.33,400.64L895.29,401.27L894.84,401.46L894.71,401.91L895.11,403.29L896.91,403.34L897.58,403.2L898.26,402.64L898.99,402.42L899.5,401.67L900.71,401.18L901.24,401.24L901.13,402.09L902.11,402.4L902.68,401.69L903.42,401.92L903.74,403.73L904.2,403.8L904.35,403.2L904.91,402.98L905.16,402.6L904.08,400.87L904.53,400.16L905.44,400.16L905.82,399.6L905.25,397.85L905.4,397.15L908.45,396.39L909.68,395.28L912.08,396.25L913.79,396.47L914.12,396.74L914.84,398.62L915.17,397.46L914.87,397.02L914.8,396.09L915.06,395.97L917.76,397.88L921.36,399.87L924.77,402.33L926.08,403.01L927.27,404.32L927.53,404.94L926.51,405.71L925.82,405.75L925.72,406.64L925.96,407.65L925.56,408.53L924.95,409.03L924.57,410.8L925.32,411.17L925.73,409.64L926.44,408.72L926.56,407.48L926.92,406L927.47,405.73L928.15,405.1L928.75,404.99L929.81,405.64L932.61,408.91L934.38,410.14L935.76,410.56L936.82,411.4L937.31,412.18L936.98,413.04L936.97,414.65L937.5,414.96L937.65,412.85L937.46,411.6L937.98,411.81L939.52,413.11L941.62,414.16L942.99,415.12L943.64,416.12L942.87,416.78L942.04,416.91L940.94,417.68L942.19,418.22L942.99,418.23L944.17,417.87L944.25,417.3L944,415.86L944.09,415.43L944.73,415.51L947.41,416.6L949.77,416.93L950.83,416.78L951.72,416.38L952.18,415.2L953.78,414.62L954.59,414.52L956.62,415.55L958.61,417.53L959.38,418.98L959.76,421.35L959.36,422.97L958.87,423.56L959.23,424.76L959.74,424.53L960,425.07L959.89,426.42L958.22,428.63L957.6,429.29L955.12,431.27L951.22,432.86L944.24,434.59L941.59,435.53L940.05,436.91L938.9,436.92L937.27,437.41L934.89,438.95L934.3,439.18L933.23,439.29L933.06,438.97L931.84,439.25L931.1,439.87L930.64,439.9L927.6,439.38L926.35,438.97L925.39,438.89L924.83,438.53L923.66,440.04L923.12,440.41L920.93,440.4L920.78,439.9L919.95,439.05L919.65,438.38L919.96,437.32L919.57,436.74L919.02,436.33L918.25,436.17L917,435.62L915.31,435.73L914.27,435.54L913.9,435.69L913.36,436.39L913.05,437.11L912.74,438.56L912.21,437.52L911.82,437.61L911.68,438.46L910.19,438.04L909.36,438.13L907.92,438.88L906.88,439.94L907.35,440.49L905.94,441.01L905.87,441.8L905.57,442.58L905.09,442.27L904.05,442.59L904.27,443.26L904.34,444.44L905.94,444.5L906.31,445.49L907.19,446.05L907.51,446.68L907.62,448.49L908.69,450.12L909.01,451.06L910.43,452.06L910.91,453.24L911.99,453.25L912.75,453.53L912.81,454.66L914.14,454.94L915.17,454.63L915.97,454.86L915.98,455.7L916.52,456.27L917.28,456.69L917.56,457.18L918.05,457L918.36,456.25L919.14,456.2L920.12,457.18L920.53,457.77L921.16,457.49L921.77,458.15L921.19,459.74L920.63,459.93L919.95,459.52L919.43,459.93L921.29,461.1L921.81,461.97L922.44,462.11L922.85,461.38L923.97,459.99L924.47,459.92L925.47,460.07L926.87,460.47L926.97,460.74L925.96,461.33L925.85,461.69L927.87,462.09L928.46,462.87L929.27,463.66L929.4,464.02L928.28,465.23L928.19,465.75L927.48,465.75L927.46,464.97L927.02,464.74L926.02,464.7L927.05,466.09L925.36,467.48L924.59,467.36L924.87,468.47L923.67,468.51L922.79,468.16L921.64,468.03L919.16,468.79L917.99,469.57L917,469.44L916.56,468.74L915.84,468.71L915.3,468.98L914.62,467.96L913.41,467.66L913.71,468.33L914.49,468.41L914.42,469.13L913.81,469.74L912,469.82L909.96,470.28L909.32,470.5L908.81,471.07L907.48,471.41L906.43,471.08L904.17,471.64L902.73,472.37L901.67,473.2L897.74,474.8L896.87,474.74L896.28,474.11L894.57,473.53L893.97,473.57L893.09,474L891.98,473.75L891.28,472.09L890.81,471.5L888.9,470.72L888.36,469.74L887.92,469.49L887.3,469.62L886.2,469.32L885.34,468.37L884.14,468.2L882.8,467.15L882.12,466.39L882.33,465.48L882.04,464.88L881.2,464.45L879.94,464.95L879.24,465.56L878.92,465.19L878.33,465.68L879.44,466.02L878.62,466.34L877.79,466.46L878.28,467.29L878.82,468.68L879.11,468.01L879.72,468.63L879.52,470.59L879.04,470.83L878.66,469.99L877.72,470.27L876.05,470.06L875.63,470.63L875.5,471.17L875.96,472.58L876.35,473.01L875.02,474.11L875.44,476.52L874.88,477.66L871.55,476.71L870.46,475.76L870.22,475.28L870.18,474.42L869.75,473.77L864.55,470.56L862.56,468.86L861.13,467.41L859.56,468.13L859.41,468.81L858.93,469.21L857.47,469.38L855.84,468.85L854.58,469.37L854.06,469.45L851.18,468.83L850.61,469.13L850.21,469.97L849.59,470.05L849,469.02L847.12,469.11L846.32,468.35L845.32,468.28L844.62,467.82L844.13,467.97L842.56,469.23L841.06,469.67L840.64,469.67L839.63,468.82L838.94,469.13L838.55,469.03L837.64,467.7L836.72,466.95L836.46,467.03L835.88,468.49L834.85,469.12L833.43,469.12L832.58,468.72L831.88,469.22L830.62,469.43L830.22,469.12L829.93,467.73L829.64,467.46L828.57,467.19L827.98,466.01L827.49,466.59L826.41,467.36L826.04,468.41L826.4,469.38L825.76,469.89L824.88,469.93L823.99,469.38L823.36,470.92L822.92,471.19L821.85,471.5L821.31,471.1L821.21,469.94L821.04,469.62L820.32,469.35L819.69,468.2L817.6,466.88L816.89,466.85L815.34,467.57L814.5,467.56L813.4,467.97L812.35,467.33L808.42,466.83L808.12,467.19L808.03,468.21L807.76,468.82L807.22,469.15L805.77,469.36L805.2,470.14L804.22,472.11L803.79,472.4L802.1,471.39L801.61,469.6L800.13,468.63L798.51,468.35L796.85,468.29L796.37,467.82L795.7,466.65L794.88,466.53L794.17,467.04L793.72,470L794.15,471.21L793.1,471.87L792.76,472.44L792.12,472.86L791.89,474.13L791.19,474.8L790.66,474.77L790.09,473.74L789.03,473.75L788.34,475.1L787.35,475.52L787,476.25L786.04,476.13L785.72,476.32L784.88,478.01ZM864.92,355.08L864.95,354.71L865.58,354.14L867.21,353.98L868.91,354.35L869.61,353.98L870.31,353.37L869.71,352.75L868.3,352.39L867.9,351.38L868.09,350.97L869.42,350.35L869.83,350.57L870.84,350.73L872.09,350.16L872.23,350.79L873.17,352.58L873.95,353.52L873.98,354.49L873.52,355.17L872.51,355.84L871.15,356.04L870.05,356.81L869.21,356.7L868.4,356.97L867.64,356.34L865.89,356.14ZM924.4,455.42L923.79,456L923.97,456.42L923.09,456.44L921.35,455.4L920.74,455.96L919.8,455.83L919.36,454.83L917.86,454.62L916.07,453.91L915.12,454.11L914.65,454.05L913.6,453.47L913.95,453.15L914.72,452.94L916.03,453.19L917,453.02L917.75,453.26L918.92,453.15L919,452.13L920.15,451.33L920.69,451.61L920.57,451.96L922.11,453.36L922.19,454.23L922.68,453.99L922.76,453.25L923.15,453.27L923.3,453.85L924.09,454L924.43,453.52L925.09,453.94L926.6,454.6L926.54,455.04L925.8,455.19L925.32,455.69L925.2,456.47L924.91,456.81ZM933.74,462.58L934.25,462.78L934.33,463.24L934.1,464L933.19,464.32L931.43,464.12L930.81,464.79L930.3,464.86L929.69,465.38L929.35,465.01L930.04,463.96L929.93,463.51L929.09,462.97L928.52,461.88L930.8,461.37L931.83,462.58L932.28,462.45L933.14,462.93L933.76,463.08ZM879.39,471.87L880.44,472.13L880.67,472.37L880.85,473.27L879.95,473.74L879.16,474.52L877.67,473.88L876.77,473.07L876.02,472.55L875.59,471.15L875.75,470.6L877.04,470.79L878.52,472Z" fill="#dadada" stroke="#fff" stroke-width="0.5" id="MY-12" data-name="Sabah"/>
    <path d="M186.04,476.66L182.27,477.15L181.37,476.98L180.03,476.12L180.46,478.63L180.2,479.5L179.52,480.38L179.28,482.04L179.53,482.55L180.19,482.99L180.48,483.44L180.49,485.74L181.05,487.49L180.89,488.78L179.86,489.7L180.3,490.8L179.55,491.02L179.24,490.18L177.98,488.39L177.94,487.95L178.24,487.47L176.62,485.98L176.51,485.03L176.23,484.89L175.37,485.12L174.71,484.72L174.47,484.02L173.33,484.34L172.71,484.3L172.24,483.71L171.01,483L169.75,481.42L168.4,481.13L167.56,480.27L166.33,480.1L165.4,480.18L164.18,479.67L162.87,480.18L161.43,481L160.32,480.37L159.63,479.59L159.67,478.74L160.55,477.86L160.68,477L160.35,475.4L160.49,474.94L161.21,473.85L161.05,472.97L161.13,472.43L162.37,471.24L162.6,470.2L162.93,469.62L163.73,469.37L164.58,469.56L164.97,469.31L164.58,468.52L164.47,467.81L164.72,467.14L165.43,466.27L165.26,465.55L164.63,464.18L164.04,463.3L163,462.35L162.12,462.17L160.82,462.76L158.88,462.76L158.31,462.43L157.85,461.67L157.24,461.26L156.7,459.66L156.62,458.12L157.74,457.83L158.03,457L157.54,456.3L158.72,455.78L157.96,454.77L157.66,453.73L156.72,452.92L156.74,452.62L155.11,452.41L153.62,452.61L150.89,451.95L149.95,450.94L149.04,450.53L147.52,448.39L148.03,447.53L147.49,445.93L147.15,445.41L147.24,444.29L147.11,444.05L145.01,442.75L144.27,442.67L143.69,442.1L142.72,441.52L141.89,441.47L141.17,441.7L140.61,441.36L140.59,439.89L140.79,438.74L140.22,436.74L140.87,435.27L140.64,434.16L140.04,433.43L139.94,432.98L140.3,432.34L140.97,432.11L141.12,431.65L140.53,430.41L139.56,429.82L139.09,429.21L136.57,427.94L135.66,427.81L136,426.08L135.73,424.67L135.86,421.78L135.98,421.27L136.48,420.33L136.58,419.41L137.03,418.58L136.39,418.14L135.91,417.38L134.37,416.37L134.2,415.77L134.99,415.28L134.92,413.9L134.56,413.1L134.61,410.94L135.18,410.07L135.35,409.42L134.88,407.96L134.79,406.21L134.21,404.16L134.16,402.77L135.89,401.23L136.79,400.09L138.53,398.73L139.51,397.39L140.63,396.45L141.65,395.14L144.64,396.88L146.2,398.2L147.26,399.78L149.03,401.89L150.88,403.57L152.46,404.4L154.4,405.88L156.79,408.26L159.06,409.69L160.28,410.25L161.06,410.45L161.75,410.11L163,410.86L163.75,411.52L169.5,417.21L171.57,420.22L173.38,423.41L173.23,424.12L173.84,425.31L175.39,427.7L178.13,433.4L181.38,439.39L185.06,445.71L185.78,447.42L184.99,447.76L184.91,448.1L186.26,452.01L185.76,454.24L186.59,456.75L187.15,458L187.59,459.85L187.12,460.44L186.18,461.19L185.99,462.64L186.58,464.39L186.53,466.23L187.07,467.54L188.37,469.8L187.34,473.14L186.78,473.98L185.88,474.39L185.74,475.14Z" fill="#dadada" stroke="#fff" stroke-width="0.5" id="MY-11" data-name="Terengganu"/>
    <path d="M97.06,496.96L98.63,499L100,499.84L100.93,500.01L102.22,499.9L102.87,500.23L104.25,501.66L104.78,502.51L105.02,503.68L105.24,504.08L106.14,504.84L106.31,505.82L105.99,506.56L106.02,507.64L104.81,508.24L103.66,510.32L104.64,512.23L105.08,514.07L104.88,514.63L104.03,515.3L103.66,516.59L104.51,517.15L104.67,517.61L106.49,520.25L109.01,521.66L110.41,521.62L111.42,522.15L112,522.49L112.11,523.52L112.7,524.5L112.69,525.71L112.89,526.75L113.46,527.93L113.44,528.45L112.88,529.45L112.78,530.07L113.89,532.5L113.86,533.31L112.51,534.13L112.38,534.86L111.58,536.2L109.83,540.24L109.02,541.23L103.08,541.02L103.7,548.47L103.52,550L103.33,550.58L102.85,551.16L103.04,551.82L102.31,552.53L102.38,553.62L101.34,553.96L101.29,554.32L100.45,554.54L99.87,553.8L99.26,553.44L97.17,552.79L96.25,552.68L94.72,551.7L92.81,551.24L90.77,550.21L90.05,549.99L89.02,548.97L87.39,545.8L86.52,545.12L86.23,544.66L86.73,544.1L86.81,543.25L86.57,542.82L86.74,542.25L87.16,542.11L87.24,541.36L88.2,541.24L88.26,540.62L88.64,540.22L88.52,539.77L87.5,539.84L87.01,540.3L86.61,539.93L87.08,539.04L87.58,538.81L87.22,538.08L86.42,538.03L87.21,537.01L87.86,536.73L87.95,536.38L87.19,535.77L86.39,536.04L86.17,536.89L85.36,537.68L85.26,538.7L84.65,539.3L84,538.67L84.47,536.68L85.76,535.27L85.5,534.61L84.31,534.67L83.89,534.03L84.12,531.65L83.89,531.01L83.02,529.94L82.05,529.1L81.73,528.43L81.34,524.22L80.86,522.15L80.32,521.24L79.4,520.04L78.29,519.14L76.52,517.98L75.71,517.64L75.15,516.16L73.54,513.69L72.52,512.67L71.22,510.67L70.52,508.68L69.38,506.06L68.21,504.39L67.34,503.48L65.87,502.29L63.41,501.55L62.36,499.12L61.36,497.97L59.56,496.79L58.88,496.61L57.69,496.59L57.34,496.22L57.12,495.31L57.45,494.85L57.72,493.5L58.04,493.2L61.69,492.83L63.32,492.27L63.5,492.47L63.45,493.82L63.74,494.05L64.91,494.38L65.09,495.04L64.46,495.93L64.89,496.83L65.58,496.91L65.99,495.8L66.45,495.52L67.45,495.43L67.86,495.66L67.91,496.41L69.24,495.93L69.18,496.54L69.37,497.69L69.7,497.72L70.79,496.49L70.91,497.19L70.3,497.53L70.06,498.83L70.27,499.16L71.03,498.42L71.56,498.92L71.97,498.37L72.45,498.47L73.07,497.54L73.48,498.1L73.15,498.69L74.38,499.13L75.04,499.9L76.11,499.6L77.06,500.1L78.45,499.55L78.55,501.76L79.98,502.08L80.88,501.72L81.57,501.76L82,501.27L82.96,501.01L83.36,500.71L83.4,499.55L82.41,496.89L82.95,495.96L83.91,495.61L84.69,495.73L85.2,496.17L85.38,497.18L85.78,497.1L87.08,497.97L88.2,498.54L88.5,499.46L89.97,500.06L91.65,501.64L92.29,501.86L92.96,501.71L93.5,500.78L94.55,500.35L94.74,499.91L94.56,499.41L94.91,498.72L95.58,498.62L96.02,497.62L95.87,496.9ZM98.54,540.52L99.06,541.3L100.87,541.17L101.78,540.65L101.91,539.22L100.87,537.66L98.92,537.4L97.93,537.53L98.15,539.09ZM102.27,532.83L102.47,532.32L103.15,532.02L103.05,530.96L103.33,529.74L102.62,528.74L102.53,527.86L102.88,526.95L102.79,526.08L103.44,525.87L103.25,524.81L102.33,523.96L102.67,523.37L101.99,523.35L101.25,524.1L100.89,524.18L99.82,523.65L99.31,524.17L98.29,523.83L97.68,523.92L96.98,525.71L95.94,527.01L95.94,528.18L96.72,529.61L97.89,530.65L98.15,531.16L98.4,532.55L100.83,533.21Z" fill="#dadada" stroke="#fff" stroke-width="0.5" id="MY-10" data-name="Selangor"/>
    <path d="M35.72,361.06L35.51,364.59L34.54,365.94L32.4,367.49L31.31,369.29L30.16,370.35L29.67,371.12L27.77,373.15L27.36,373.87L27.1,374.95L26.64,374.57L25.87,373.15L24.22,368.5L23.63,367.55L23.74,366.85L24.78,365.17L24.66,364.41L25.36,363.49L25.07,360.24L25.21,359.07L26.35,359.35L26.56,359.08L25.81,357.3L25.67,356.45L26.03,355.56L26.41,355.28L26.36,354.03L25.96,353.34L26.37,353.09L26.73,352.23L27.61,351.86L28.09,352.03L29.07,353.32L29.94,353.11L30.33,353.32L30.88,353.18L31.17,352.64L32.01,352.61L32.02,353.68L32.4,354.26L33.45,354.85L33.34,355.88L33.49,357.04L32.89,357.76L34.86,359.41L35.13,360.59Z" fill="#dadada" stroke="#fff" stroke-width="0.5" id="MY-09" data-name="Perlis"/>
    <path d="M47.65,453.84L49.98,455.91L49.8,456.39L49.27,456.66L49.49,457.87L48.86,457.97L47.64,458.46L46,457.82L46.25,456.77L46.17,456.11L46.42,455.36L47.02,454.34ZM109.45,396.72L110.04,397.55L110.27,398.82L110.49,399.2L111.74,399.97L111.91,400.59L112.56,400.78L112.99,401.57L113.76,401.24L113.98,401.88L113.51,402.33L113.7,403.22L114.38,404.07L113.94,405.76L113.19,406L112.9,406.76L113.73,407.24L114.07,407.74L114.1,408.34L113.72,409.99L115.28,410.51L114.85,412.42L115.12,413.31L114.51,414.2L113.51,414.68L113.49,415.14L113.76,416.29L113.67,416.65L111.43,419.11L110.87,419.54L109.84,419.59L107.54,419.28L105.61,419.24L103.13,417.3L103.22,418.52L102.36,419.79L101.38,420.03L101,420.42L99.81,420.71L97.64,420.1L96.64,418.99L95.92,418.77L95.68,419.03L95.44,420.29L94.55,421.12L94.33,422.43L93.6,422.73L92.95,423.44L92.27,423.33L92.01,423.86L92.24,424.72L91.49,425.78L91.63,426.7L90.83,427.69L90.53,428.38L90.33,429.61L90.44,430.35L90.19,431.6L90.33,432.56L89.39,433.49L89.04,435.23L88.51,435.92L88.6,436.6L87.52,437.67L87.57,438.19L88.6,439.12L88.57,440.16L88.83,441.55L88.64,442.21L88.03,443.06L88.51,443.5L86.93,443.91L86.49,444.37L86.38,444.93L86.73,445.99L85.93,448.17L84.85,448.72L85.33,450.55L85.19,450.91L84.31,451.11L83.34,450.92L82.95,451.51L82.96,452.16L83.64,453.21L84.61,454.95L85.31,455.79L84.66,455.81L83.78,456.61L83.68,457.15L83.95,459.5L84.26,459.9L85.17,460.31L85.23,460.77L84.93,461.23L84.21,461.51L83.86,462.83L83.53,463.38L82.84,463.8L82.66,464.38L83.53,464.92L83.83,466.12L84.06,466.33L85.74,465.97L86.41,466.44L87.41,466.63L88.05,467.33L87.38,468.95L87.56,469.3L88.31,469.81L88.44,471.22L88.29,472.29L89.07,473.34L88.56,473.97L88.75,474.79L89.37,475.33L91.26,475.54L91.26,475.91L90.74,477.6L91.27,479.5L91.58,479.73L92.44,479.69L94.26,480.95L94.84,481.73L94.87,482.43L93.84,483.89L93.62,484.77L93.8,485.19L94.44,485.75L94.58,486.12L94.64,487.93L94.45,488.68L94.61,489.19L94.66,490.66L95.63,491.5L95.98,493.24L95.48,493.87L95.35,495.51L96.61,496.03L97.06,496.96L95.87,496.9L96.02,497.62L95.58,498.62L94.91,498.72L94.56,499.41L94.74,499.91L94.55,500.35L93.5,500.78L92.96,501.71L92.29,501.86L91.65,501.64L89.97,500.06L88.5,499.46L88.2,498.54L87.08,497.97L85.78,497.1L85.38,497.18L85.2,496.17L84.69,495.73L83.91,495.61L82.95,495.96L82.41,496.89L83.4,499.55L83.36,500.71L82.96,501.01L82,501.27L81.57,501.76L80.88,501.72L79.98,502.08L78.55,501.76L78.45,499.55L77.06,500.1L76.11,499.6L75.04,499.9L74.38,499.13L73.15,498.69L73.48,498.1L73.07,497.54L72.45,498.47L71.97,498.37L71.56,498.92L71.03,498.42L70.27,499.16L70.06,498.83L70.3,497.53L70.91,497.19L70.79,496.49L69.7,497.72L69.37,497.69L69.18,496.54L69.24,495.93L67.91,496.41L67.86,495.66L67.45,495.43L66.45,495.52L65.99,495.8L65.58,496.91L64.89,496.83L64.46,495.93L65.09,495.04L64.91,494.38L63.74,494.05L63.45,493.82L63.5,492.47L63.32,492.27L61.69,492.83L58.04,493.2L57.72,493.5L57.45,494.85L57.12,495.31L57.57,493.34L57.6,492.67L56.8,492.56L56.08,492.78L55.46,493.21L54.39,492.97L52.46,491.7L52,490.14L51.8,487.89L51.98,486.09L52.46,485.45L53.13,485.42L54.73,484.81L55.07,483.46L54.8,481.48L54.16,480.56L53.44,480.1L52.1,478.36L51.52,477.89L49.97,477.33L48.69,477.33L48.17,478.01L47.65,477.61L47.48,476.88L47.02,476.36L47.37,475.72L47.36,475.21L46.68,474.63L46.45,473.79L47.21,473.91L48.06,474.29L48.85,474.06L49.77,473.31L50.13,472.67L49.99,472L50.36,470.96L49.92,470.4L49.56,471.77L49.51,472.84L48.71,473.56L47.22,473.35L46.46,473.11L46.24,471.39L45.58,470.4L44.85,470.51L44.91,469.97L45.29,469.42L46.17,467.33L46.28,465.48L47.2,464.86L47.51,464.19L47.8,462.63L47.76,460.67L47.96,459.92L49.2,458.95L49.79,457.66L49.53,456.66L49.95,456.36L50.02,455.87L47.99,453.88L49.75,452.17L50.41,449.96L50.04,449.18L48.99,448.45L47.6,448.03L47.52,447.24L48.25,446.52L48.02,445.77L48.31,444.83L48.06,444.51L47.02,444.21L46.21,444.25L45.67,443.37L44.87,443.58L44.35,443.29L44.27,442.66L44.57,442.21L43.78,441.79L44.26,441.43L45.09,442.07L45.78,441.58L45.69,440.3L45.29,440.15L44.56,440.6L44.16,439.93L43.7,439.93L42.94,440.97L40.62,440.16L39.46,440.78L39.22,440.76L38.59,439.99L38.18,439.08L38.06,437.03L37.44,437.11L36.79,435.9L36.55,434.85L35.74,433.03L35.16,432.29L35.41,431.56L36.31,431.01L36.58,430.15L37.22,430.25L40.9,429.88L42.17,429.39L41.75,430.02L41.96,430.54L42.47,430.35L42.87,430.89L42.54,431.3L42.68,431.72L43.56,432.08L44.21,431.86L45.05,432.32L45.66,431.69L46.36,430.46L47.67,430.19L48.45,428.33L48.93,428.28L49.38,427.84L50.26,427.67L50.6,426.86L50.33,426.44L51.21,425.13L51.33,424.5L51.84,424.51L53.13,423.97L53.58,423.53L53.56,422.33L53.98,421.38L55.31,421.07L55.96,421.22L56.77,420.95L57.35,421.02L58.48,419.86L59.09,419.54L59.6,417.29L59.47,416.49L60.07,415.49L60.11,414.04L60.44,413.04L61.1,412.28L61.94,412.48L62.66,412.15L63.79,409.74L63.56,409L63.5,407.84L62.96,407.2L63,406.3L63.7,405.75L64,404.68L64.99,404.6L65.14,403.98L65.11,403.07L65.59,401.74L65.31,401.05L64.67,400.67L64.12,400.01L64.05,398.72L64.36,398.43L65.76,398.64L65.96,397.75L67.24,398.64L67.93,399.89L69.26,399.91L69.61,400.21L71.79,403.15L72.93,405.33L73.04,406.36L74.18,405.59L74.98,404.67L76.03,404.44L76.52,404.09L77.77,402.62L79.03,401.49L79.16,400.64L78.68,399.19L79.34,397.46L80.22,396.44L80.81,396.31L81.9,396.92L83.35,396.34L84.51,395.57L85.73,393.66L86.56,393.48L89.49,393.67L90.18,393.48L92.86,391.49L94.11,391.25L94.93,390.72L96.96,392.44L97.56,393.4L98.86,393.77L98.98,394.15L98.94,396.57L99.33,397.28L100.37,398.24L100.82,399.28L101.39,399.05L101.55,398.3L102.48,397.9L103.06,397.48L103.93,397.55L104.76,399.09L105.65,399.95L106.3,400.4L106.71,400.36L106.67,399.08L107.08,397.93L107.9,397.8L108.85,396.95ZM47.86,448.49L49.75,449.35L50.1,450.2L48.89,452.5L48.09,452.4L46.68,452.89L45.9,450.58L45.72,449.33L45.78,448.79L46.16,448.12L46.84,448.36Z" fill="#dadada" stroke="#fff" stroke-width="0.5" id="MY-08" data-name="Perak"/>
    <path d="M34.55,408.2L35.38,408.22L35.89,407.9L36.68,407.96L38.11,408.79L39.49,408.72L40.41,409.09L41.47,409.1L42.31,408.69L43.06,408.85L43.41,409.16L43.46,413.02L43.25,416.56L43.35,417.34L43.27,418.5L43.67,421.94L43.71,423.42L44.46,429.62L44.24,429.85L43.32,429.53L42.17,429.39L40.9,429.88L37.22,430.25L36.58,430.15L38.23,428.33L37.98,427.93L38.31,425.68L37.58,423.37L37.95,422.98L37.64,421.27L37.23,420.89L37.37,420.07L35.39,417.64L35.27,417.03L35.86,415.82L36.16,413.86L35.68,410.89L35.21,409.61L34.88,409.11L34.09,408.49ZM30.98,413.14L31.49,413.67L31.84,413.58L32.63,413.8L32.8,415.12L33.65,415.75L34.46,415.88L34.39,416.33L33.04,417.81L32.95,419.36L31.39,423.38L31,423.97L30.62,423.22L28.7,422.53L28.15,422.76L26.26,422.88L26.54,422.12L26.46,421.64L27.15,421.41L27.03,420.67L27.1,419.85L26.64,418.45L26.53,417.38L26.53,415.5L26.37,414.91L26.54,414.29L26.44,413.78L26.72,413.48L27.9,414.03L29.19,413.75L30.04,412.89Z" fill="#dadada" stroke="#fff" stroke-width="0.5" id="MY-07" data-name="Penang"/>
    <path d="M85.31,455.79L86.46,455.56L88.09,456.86L89.21,457.49L89.72,457.26L90.36,456.27L90.78,455.94L91.96,455.8L92.53,455.96L93.82,457.5L94.7,457.74L95.23,458.43L95.6,458.62L96.19,458.21L97.33,458.75L98.11,458.38L98.61,458.35L99.16,457.95L99.66,456.84L100.48,456.38L101.72,456.03L102.2,455.2L103.31,455.58L103.96,454.94L104.49,453.23L104.33,452.16L104.66,450.89L104.38,449.98L104.56,448.79L104.97,448.4L106.18,448.39L106.66,448.67L106.86,449.14L106.63,449.9L107.01,450.32L107.73,450.46L108.22,452L109.64,452.43L110.19,452.84L110.42,453.98L110.34,454.94L111,455.69L111.31,455.6L111.9,453.75L112.77,452.88L113.23,450.91L113.04,449.16L113.74,448.37L114.46,449.15L114.93,449.29L115.18,448.58L116.39,449.74L117.09,449.38L117.82,449.92L118.36,449.5L120.1,448.66L121.05,448.49L121.68,449.19L121.85,450.45L123.32,451.49L123.74,452.18L124.03,453.22L124.83,453.72L125.91,454.81L126.85,454.9L127.12,453.75L127.38,453.6L129.46,453.6L130.27,454.18L131.21,454.55L131.86,454.42L133.59,452.4L133.38,451.29L133.54,450.96L135.17,450.62L137.12,450.7L137.76,450.85L138.25,451.22L139.2,452.33L140,452.94L140.7,453.01L141.36,452.42L142.33,451.11L142.85,451.1L143.43,451.56L144.66,451.7L145.18,451.51L144.67,448.77L144.75,448.24L145.14,447.75L145.59,447.6L147.07,448.4L147.52,448.39L149.04,450.53L149.95,450.94L150.89,451.95L153.62,452.61L155.11,452.41L156.74,452.62L156.72,452.92L157.66,453.73L157.96,454.77L158.72,455.78L157.54,456.3L158.03,457L157.74,457.83L156.62,458.12L156.7,459.66L157.24,461.26L157.85,461.67L158.31,462.43L158.88,462.76L160.82,462.76L162.12,462.17L163,462.35L164.04,463.3L164.63,464.18L165.26,465.55L165.43,466.27L164.72,467.14L164.47,467.81L164.58,468.52L164.97,469.31L164.58,469.56L163.73,469.37L162.93,469.62L162.6,470.2L162.37,471.24L161.13,472.43L161.05,472.97L161.21,473.85L160.49,474.94L160.35,475.4L160.68,477L160.55,477.86L159.67,478.74L159.63,479.59L160.32,480.37L161.43,481L162.87,480.18L164.18,479.67L165.4,480.18L166.33,480.1L167.56,480.27L168.4,481.13L169.75,481.42L171.01,483L172.24,483.71L172.71,484.3L173.33,484.34L174.47,484.02L174.71,484.72L175.37,485.12L176.23,484.89L176.51,485.03L176.62,485.98L178.24,487.47L177.94,487.95L177.98,488.39L179.24,490.18L179.55,491.02L180.3,490.8L179.86,489.7L180.89,488.78L181.05,487.49L180.49,485.74L180.48,483.44L180.19,482.99L179.53,482.55L179.28,482.04L179.52,480.38L180.2,479.5L180.46,478.63L180.03,476.12L181.37,476.98L182.27,477.15L186.04,476.66L185.61,477.15L185.06,477L184.64,477.19L184.36,477.71L184.3,479.01L183.19,479.9L183.1,480.49L183.2,481.52L183.75,483.74L185.02,486.45L185.81,487.49L185.47,487.83L184.26,487.23L183.91,487.34L183.25,488.03L182.26,489.75L182.16,491.49L182.77,494.52L182.49,494.78L182.46,495.5L181.76,495.09L180.99,495.21L180.33,497.01L180.2,498.55L180.85,500.51L182.34,503.1L185.62,507.29L186.51,508.2L187.19,508.64L187.61,510.39L187.4,510.79L186.54,511.53L186,512.41L185.28,514.72L184.98,517.18L185.1,518.92L185.78,522L186.14,524.53L185.96,526.55L186.22,528.56L186.15,529.66L185.82,530.01L185.64,531.14L185.48,533.8L185.57,535.33L185.25,536.86L185.53,538.68L185.95,540.21L186.62,541.63L190.16,546.16L194.67,550.28L195.1,551.02L195,551.45L193.84,551.19L193.07,551.67L193.14,552.47L193.4,552.85L194.19,552.77L194.49,553.05L194.33,553.57L194.59,554.07L193.52,555.52L193.77,556.03L193.3,556.54L193.13,557.7L193.46,557.96L194.38,557.72L194.55,558.56L194.96,559.21L194.96,559.85L195.32,560.21L194.75,561.13L194.11,560.86L193.67,561.19L192.96,561.04L187.65,558.35L186.45,556.85L184.74,556.56L181.79,554.92L180.94,554.96L177.97,555.66L171.73,558.23L171.37,558.23L162.69,554.44L154.16,544.4L149.63,543.06L148.88,540.44L148.59,540.23L147.4,540.02L138.53,534.02L138.1,533.84L137.72,533.12L134.66,529.21L134.43,529.08L129.39,527.94L123.56,526.21L123.29,526.08L122.29,525L121.24,525.05L120.78,525.55L119.97,525.63L119.26,526.48L118.69,526.58L118.3,526.2L117.9,525.16L117.8,524.31L117.43,523.68L116.83,523.49L114.97,523.36L114.51,522.95L114.18,521.9L113.9,521.5L113.03,521.39L112.33,521.08L111.69,521.47L111.42,522.15L110.41,521.62L109.01,521.66L106.49,520.25L104.67,517.61L104.51,517.15L103.66,516.59L104.03,515.3L104.88,514.63L105.08,514.07L104.64,512.23L103.66,510.32L104.81,508.24L106.02,507.64L105.99,506.56L106.31,505.82L106.14,504.84L105.24,504.08L105.02,503.68L104.78,502.51L104.25,501.66L102.87,500.23L102.22,499.9L100.93,500.01L100,499.84L98.63,499L97.06,496.96L96.61,496.03L95.35,495.51L95.48,493.87L95.98,493.24L95.63,491.5L94.66,490.66L94.61,489.19L94.45,488.68L94.64,487.93L94.58,486.12L94.44,485.75L93.8,485.19L93.62,484.77L93.84,483.89L94.87,482.43L94.84,481.73L94.26,480.95L92.44,479.69L91.58,479.73L91.27,479.5L90.74,477.6L91.26,475.91L91.26,475.54L89.37,475.33L88.75,474.79L88.56,473.97L89.07,473.34L88.29,472.29L88.44,471.22L88.31,469.81L87.56,469.3L87.38,468.95L88.05,467.33L87.41,466.63L86.41,466.44L85.74,465.97L84.06,466.33L83.83,466.12L83.53,464.92L82.66,464.38L82.84,463.8L83.53,463.38L83.86,462.83L84.21,461.51L84.93,461.23L85.23,460.77L85.17,460.31L84.26,459.9L83.95,459.5L83.68,457.15L83.78,456.61L84.66,455.81Z" fill="#dadada" stroke="#fff" stroke-width="0.5" id="MY-06" data-name="Pahang"/>
    <path d="M111.42,522.15L111.69,521.47L112.33,521.08L113.03,521.39L113.9,521.5L114.18,521.9L114.51,522.95L114.97,523.36L116.83,523.49L117.43,523.68L117.8,524.31L117.9,525.16L118.3,526.2L118.69,526.58L119.26,526.48L119.97,525.63L120.78,525.55L121.24,525.05L122.29,525L123.29,526.08L123.56,526.21L129.39,527.94L134.43,529.08L134.66,529.21L137.72,533.12L138.1,533.84L138.53,534.02L147.4,540.02L148.59,540.23L148.88,540.44L149.63,543.06L146.21,552.66L146.33,553.26L146.84,554.16L146.71,554.51L145.88,554.94L145.82,555.46L145.39,556.18L145.34,557.3L145.62,558.48L145.22,559.38L145.49,560.48L145.39,560.91L144.57,561.5L144.33,561.88L144.25,563.19L142.93,563.3L139.91,562.19L136.75,561.46L136.23,561.23L135.63,560.6L134.88,560.18L133.02,559.74L131.9,559.92L129.1,561.01L127.29,561.07L126.16,560.76L124.52,559.67L123.78,559.47L122.64,561.19L120.93,561.22L120.76,561.41L119.02,561.25L118.35,561.74L117.86,562.76L116.95,562.58L116.85,563.02L115.74,563.92L115.28,564.65L113.98,565.22L114.01,564.53L113.81,564.03L113.04,563.88L112.39,563.09L111.49,562.85L110.32,563.25L109.61,563.11L108.3,563.08L108.4,562.29L107.71,559.75L106.49,558.16L105.1,558.1L105.05,557.64L105.52,557.09L105.31,555.51L104.56,554.73L103.37,554.13L102.8,554.15L102.12,554.58L101.29,554.32L101.34,553.96L102.38,553.62L102.31,552.53L103.04,551.82L102.85,551.16L103.33,550.58L103.52,550L103.7,548.47L103.08,541.02L109.02,541.23L109.83,540.24L111.58,536.2L112.38,534.86L112.51,534.13L113.86,533.31L113.89,532.5L112.78,530.07L112.88,529.45L113.44,528.45L113.46,527.93L112.89,526.75L112.69,525.71L112.7,524.5L112.11,523.52L112,522.49Z" fill="#dadada" stroke="#fff" stroke-width="0.5" id="MY-05" data-name="Negeri Sembilan"/>
    <path d="M113.98,565.22L115.28,564.65L115.74,563.92L116.85,563.02L116.95,562.58L117.86,562.76L118.35,561.74L119.02,561.25L120.76,561.41L120.93,561.22L122.64,561.19L123.78,559.47L124.52,559.67L126.16,560.76L127.29,561.07L129.1,561.01L131.9,559.92L133.02,559.74L134.88,560.18L135.63,560.6L136.23,561.23L136.75,561.46L139.91,562.19L142.93,563.3L144.25,563.19L144.11,563.84L141.95,564.69L141.83,565.45L140.76,566.37L140.05,570.25L139.74,570.78L139.74,572.84L139.51,573.22L138.82,573.65L138.91,574.64L140.73,575.29L141.32,575.85L141.36,577.39L140.58,577.84L139.22,578.16L138.37,578.36L136.86,578.12L135.14,577.18L133.55,577.1L132.21,576.2L130.95,575.93L130.35,575.44L127.4,574.5L124.92,572.96L123.96,572.82L122.95,573.01L122.25,571.73L121.26,570.52L119.89,569.77L119.19,569.16L118.82,567.96L118.2,567L116.14,565.76L115.43,565.58L114.2,565.53Z" fill="#dadada" stroke="#fff" stroke-width="0.5" id="MY-04" data-name="Malacca"/>
    <path d="M141.65,395.14L140.63,396.45L139.51,397.39L138.53,398.73L136.79,400.09L135.89,401.23L134.16,402.77L134.21,404.16L134.79,406.21L134.88,407.96L135.35,409.42L135.18,410.07L134.61,410.94L134.56,413.1L134.92,413.9L134.99,415.28L134.2,415.77L134.37,416.37L135.91,417.38L136.39,418.14L137.03,418.58L136.58,419.41L136.48,420.33L135.98,421.27L135.86,421.78L135.73,424.67L136,426.08L135.66,427.81L136.57,427.94L139.09,429.21L139.56,429.82L140.53,430.41L141.12,431.65L140.97,432.11L140.3,432.34L139.94,432.98L140.04,433.43L140.64,434.16L140.87,435.27L140.22,436.74L140.79,438.74L140.59,439.89L140.61,441.36L141.17,441.7L141.89,441.47L142.72,441.52L143.69,442.1L144.27,442.67L145.01,442.75L147.11,444.05L147.24,444.29L147.15,445.41L147.49,445.93L148.03,447.53L147.52,448.39L147.07,448.4L145.59,447.6L145.14,447.75L144.75,448.24L144.67,448.77L145.18,451.51L144.66,451.7L143.43,451.56L142.85,451.1L142.33,451.11L141.36,452.42L140.7,453.01L140,452.94L139.2,452.33L138.25,451.22L137.76,450.85L137.12,450.7L135.17,450.62L133.54,450.96L133.38,451.29L133.59,452.4L131.86,454.42L131.21,454.55L130.27,454.18L129.46,453.6L127.38,453.6L127.12,453.75L126.85,454.9L125.91,454.81L124.83,453.72L124.03,453.22L123.74,452.18L123.32,451.49L121.85,450.45L121.68,449.19L121.05,448.49L120.1,448.66L118.36,449.5L117.82,449.92L117.09,449.38L116.39,449.74L115.18,448.58L114.93,449.29L114.46,449.15L113.74,448.37L113.04,449.16L113.23,450.91L112.77,452.88L111.9,453.75L111.31,455.6L111,455.69L110.34,454.94L110.42,453.98L110.19,452.84L109.64,452.43L108.22,452L107.73,450.46L107.01,450.32L106.63,449.9L106.86,449.14L106.66,448.67L106.18,448.39L104.97,448.4L104.56,448.79L104.38,449.98L104.66,450.89L104.33,452.16L104.49,453.23L103.96,454.94L103.31,455.58L102.2,455.2L101.72,456.03L100.48,456.38L99.66,456.84L99.16,457.95L98.61,458.35L98.11,458.38L97.33,458.75L96.19,458.21L95.6,458.62L95.23,458.43L94.7,457.74L93.82,457.5L92.53,455.96L91.96,455.8L90.78,455.94L90.36,456.27L89.72,457.26L89.21,457.49L88.09,456.86L86.46,455.56L85.31,455.79L84.61,454.95L83.64,453.21L82.96,452.16L82.95,451.51L83.34,450.92L84.31,451.11L85.19,450.91L85.33,450.55L84.85,448.72L85.93,448.17L86.73,445.99L86.38,444.93L86.49,444.37L86.93,443.91L88.51,443.5L88.03,443.06L88.64,442.21L88.83,441.55L88.57,440.16L88.6,439.12L87.57,438.19L87.52,437.67L88.6,436.6L88.51,435.92L89.04,435.23L89.39,433.49L90.33,432.56L90.19,431.6L90.44,430.35L90.33,429.61L90.53,428.38L90.83,427.69L91.63,426.7L91.49,425.78L92.24,424.72L92.01,423.86L92.27,423.33L92.95,423.44L93.6,422.73L94.33,422.43L94.55,421.12L95.44,420.29L95.68,419.03L95.92,418.77L96.64,418.99L97.64,420.1L99.81,420.71L101,420.42L101.38,420.03L102.36,419.79L103.22,418.52L103.13,417.3L105.61,419.24L107.54,419.28L109.84,419.59L110.87,419.54L111.43,419.11L113.67,416.65L113.76,416.29L113.49,415.14L113.51,414.68L114.51,414.2L115.12,413.31L114.85,412.42L115.28,410.51L113.72,409.99L114.1,408.34L114.07,407.74L113.73,407.24L112.9,406.76L113.19,406L113.94,405.76L114.38,404.07L113.7,403.22L113.51,402.33L113.98,401.88L113.76,401.24L112.99,401.57L112.56,400.78L111.91,400.59L111.74,399.97L110.49,399.2L110.27,398.82L110.04,397.55L109.45,396.72L109.37,396.27L109.68,395.49L110.33,395.19L111.31,395.2L112.49,394.03L112.53,393.55L112.08,392.19L111.52,391.55L111.9,390.67L111.91,390L112.57,389.78L112.54,388.44L112.7,388.14L114.01,387.21L113.96,386.54L114.76,385.65L116.14,384.83L117.48,383.74L117.99,383.54L118.37,382.42L119.14,381.54L119.41,380.77L119.91,380.27L119.21,379.05L119.15,378.08L119.3,376.4L119.98,375.61L122.42,377.28L123.87,377.65L124,376.94L125.72,376.45L126.18,376.54L126.63,377.49L127.02,376.87L129.92,378.26L131.28,378.68L132.38,379.44L133.79,381.47L137.44,389.87L138.31,391.52L139,392.51L138.69,392.81L138.79,393.45L140,394.44L140.45,394.21Z" fill="#dadada" stroke="#fff" stroke-width="0.5" id="MY-03" data-name="Kelantan"/>
    <path d="M9.53,364.2L10.39,364.76L10.61,365.26L10.5,365.96L12.35,367.09L12.61,367.7L13.09,368.02L13.24,368.51L12.77,369.72L13.35,370.31L13.19,371.31L12.67,371.38L11.71,371.8L11.62,372.31L10.34,372.79L10.36,372.25L9.71,371.48L8.51,371.65L7.94,371.92L7.74,372.62L6.42,373.75L5.72,373.53L5.42,374.08L4.64,374.75L4.21,374.58L4.29,373.56L3.54,372.23L3.98,371.46L3.85,370.4L3.46,369.71L2.55,369.99L1.84,369.43L0.75,369.75L0.28,369.24L0.03,368.1L0.19,367.58L0,366.04L0.41,365.93L1.26,366.5L1.8,365.99L2.3,366.18L3.12,365.97L4.16,366.28L4.29,366.87L4.66,367.11L5.06,366.48L6.64,366.73L7.39,366.57L8.42,365.1L8.9,365.27L9.72,364.82L8.69,364.63L9,364ZM65.96,397.75L65.76,398.64L64.36,398.43L64.05,398.72L64.12,400.01L64.67,400.67L65.31,401.05L65.59,401.74L65.11,403.07L65.14,403.98L64.99,404.6L64,404.68L63.7,405.75L63,406.3L62.96,407.2L63.5,407.84L63.56,409L63.79,409.74L62.66,412.15L61.94,412.48L61.1,412.28L60.44,413.04L60.11,414.04L60.07,415.49L59.47,416.49L59.6,417.29L59.09,419.54L58.48,419.86L57.35,421.02L56.77,420.95L55.96,421.22L55.31,421.07L53.98,421.38L53.56,422.33L53.58,423.53L53.13,423.97L51.84,424.51L51.33,424.5L51.21,425.13L50.33,426.44L50.6,426.86L50.26,427.67L49.38,427.84L48.93,428.28L48.45,428.33L47.67,430.19L46.36,430.46L45.66,431.69L45.05,432.32L44.21,431.86L43.56,432.08L42.68,431.72L42.54,431.3L42.87,430.89L42.47,430.35L41.96,430.54L41.75,430.02L42.17,429.39L43.32,429.53L44.24,429.85L44.46,429.62L43.71,423.42L43.67,421.94L43.27,418.5L43.35,417.34L43.25,416.56L43.46,413.02L43.41,409.16L43.06,408.85L42.31,408.69L41.47,409.1L40.41,409.09L39.49,408.72L38.11,408.79L36.68,407.96L35.89,407.9L35.38,408.22L34.55,408.2L34.13,407.85L34.25,405.99L34.08,404.1L34.84,402.74L34.64,401.76L35.25,400.38L35.52,398.56L35.44,395.93L34.84,390.3L34.49,388.5L33.5,385.22L32.78,384.06L31.75,383.16L31.44,382.68L30.85,379.94L30.01,378.09L28.53,376.15L27.02,375.18L27.1,374.95L27.36,373.87L27.77,373.15L29.67,371.12L30.16,370.35L31.31,369.29L32.4,367.49L34.54,365.94L35.51,364.59L35.72,361.06L36.37,361.35L38.51,361.91L39.94,361.34L40.5,361.87L41.51,361.65L41.78,361.82L42.21,362.85L43.34,363.53L44.39,363.64L45.02,363.11L45.62,363.73L47.29,364.32L48.66,364.97L49.96,365.29L50.99,365.17L52.21,364.32L52.43,363.76L53.38,362.41L53.92,362.66L53.89,363.46L54.05,364.37L54.35,364.89L55.81,365.11L57.19,365.62L57.82,366.33L57.92,366.78L57.71,367.86L57.74,369.94L58.14,370.42L58.7,369.93L58.99,370.07L59.08,372.12L58.48,372.8L58.39,373.27L59.3,375.49L59.98,375.49L60.55,374.6L61.82,375.42L62.54,375.1L63.53,375.19L63.89,374.91L65.06,373.35L65.88,373.5L66.38,374.25L67.41,375L71.02,374.64L71.84,375.08L71.61,375.78L72.65,377.88L71.73,378.65L70.16,379.1L69.92,379.67L69.33,380.46L71.03,381.11L72.92,382.46L72.86,382.93L72.35,383.26L72.1,384.07L71.48,384.78L71.95,385.57L71.66,387.53L72.67,388.55L71.27,390.2L70.75,391.17L70.65,391.87L70.15,391.52L69.22,391.61L68.23,391.52L67.7,391.77L67.88,392.33L66.92,393.69L66.91,395.06L67.06,395.74L66.43,396.42L65.84,396.81ZM9.22,376.86L9.36,377.25L8.8,378.65L8.07,378.97L7.84,378.21L7.26,378.14L6.46,377.52L6.19,376.74L6.59,376.19L7.17,375.78L7.54,374.9L7.66,374.13L8.6,373.76L9.42,372.93L9.7,372.96L9.75,373.9L8.99,374.29L8.92,374.79L9.99,374.23L10.74,375.02L10.94,375.97L10.6,376.89L10.25,376.39L9.33,376.53Z" fill="#dadada" stroke="#fff" stroke-width="0.5" id="MY-02" data-name="Kedah"/>
    <path d="M184.88,617.6L184.67,617.15L184.8,615.99L185.63,616.54L185.6,617.26ZM221.5,539.73L222.28,540.69L222.64,542.56L222.99,543.13L223.28,544.09L223.67,544.4L223.14,544.77L223.23,545.34L224.12,545.98L224.02,546.65L223.72,547.13L223.89,547.6L223.57,548.43L222.01,548.44L221.31,548.65L220.44,548.29L219.08,547.01L219.16,546.4L218.92,545.3L219.73,544.29L220.95,543.48L221.18,543.06L220.93,542.16L220.42,541.74L220.41,541.22L220.72,540.7L220.8,539.9ZM140.58,577.84L141.36,577.39L141.32,575.85L140.73,575.29L138.91,574.64L138.82,573.65L139.51,573.22L139.74,572.84L139.74,570.78L140.05,570.25L140.76,566.37L141.83,565.45L141.95,564.69L144.11,563.84L144.25,563.19L144.33,561.88L144.57,561.5L145.39,560.91L145.49,560.48L145.22,559.38L145.62,558.48L145.34,557.3L145.39,556.18L145.82,555.46L145.88,554.94L146.71,554.51L146.84,554.16L146.33,553.26L146.21,552.66L149.63,543.06L154.16,544.4L162.69,554.44L171.37,558.23L171.73,558.23L177.97,555.66L180.94,554.96L181.79,554.92L184.74,556.56L186.45,556.85L187.65,558.35L192.96,561.04L193.67,561.19L194.11,560.86L194.75,561.13L195.32,560.21L194.96,559.85L194.96,559.21L194.55,558.56L194.38,557.72L193.46,557.96L193.13,557.7L193.3,556.54L193.77,556.03L193.52,555.52L194.59,554.07L194.33,553.57L194.49,553.05L194.19,552.77L193.4,552.85L193.14,552.47L193.07,551.67L193.84,551.19L195,551.45L195.1,551.02L196.16,551.41L196.94,551.33L198.41,552.1L200.29,552.7L200.84,552.48L200.87,551.93L201.28,551.79L201.69,552.34L201.35,553.1L201.49,553.47L203.71,555.13L204.15,555.59L204.49,557.22L204.91,558.09L205.63,558.85L205.5,559.04L204.42,559.31L204.26,559.67L205.34,562.33L206.03,562.61L206.65,563.74L208.84,566.5L210.03,566.81L210.32,567.36L211.26,568.51L210.77,568.93L211.49,570.32L212.21,571.06L211.15,571.69L211.01,572.95L211.21,573.5L214.05,577.32L215.4,580.36L218.76,585.18L219.18,586.71L218.62,586.76L218.32,588.12L218.32,589.05L218.92,590.39L219.66,591.15L220.07,591.29L221.08,591.15L220.92,592.09L221.39,592.95L222.37,594.17L222.94,595.6L223,596.43L223.97,597.72L223.7,598.53L224.53,599.81L225.3,600.59L225.15,601.59L226.11,602.72L225.57,603.21L225.72,603.92L225.6,604.99L226.07,605.82L227.03,607.02L227.12,607.64L226.58,607.94L226.53,608.54L226.83,609.46L227.57,610.67L227.56,610.99L226.77,611.42L226.6,612.67L227.05,614.44L226.69,614.75L225.78,615.04L225.14,614.52L224.2,615.44L223.81,615.41L223.17,615.99L221.89,615.55L221.23,615.86L220.85,615.59L219.88,615.86L219.51,615.21L218.36,614.72L217.53,614.59L217.68,614.14L218.24,613.66L219.28,612.37L218.41,612.75L217.8,611.9L215.19,609.99L216.19,608.66L215.86,607.97L216.59,607.35L217.65,607.09L216.6,606.77L215.75,607.29L215.18,608.33L214.61,606.47L214.83,605.58L214.17,604.38L212.77,603.16L212.26,602.54L211.82,601.03L210.43,600.44L210.48,601.05L211.54,602.12L211.42,602.73L211.86,603.94L213.13,604.79L213.95,606.64L213.39,607.55L213.68,609.71L213.5,610.63L212.6,611.43L211.23,611.71L209.45,611.23L208.25,611.26L207.51,610.89L206.99,610.32L206.8,609.73L204.2,608.83L203.16,608.87L201.81,610.29L201.46,610.4L200.28,610.1L199.47,609.06L199.09,609.14L199.3,609.82L197.6,611L196.1,612.7L195.9,613.59L195.47,614.31L193.93,615.64L192.81,615.71L191.08,615.22L190.63,613.72L190.74,612.73L190.29,612.83L190.44,615.1L191.02,616.2L189.99,616.92L189.47,617.63L189.15,619.62L186.76,617.17L186.16,616.88L184.91,613.89L183.97,610.73L182.55,607.35L181.89,606.32L181.24,605.7L179.96,604.77L174.59,602.65L172.7,601.71L171.3,600.92L169.98,599.76L167.22,597.74L164.47,596.45L163.44,596.25L161.38,596.35L158.71,593.79L159.14,593.34L159.18,592.92L155.83,590.84L154.44,590.38L153.1,590.16L151.18,590.18L150.24,590.86L149.08,590.16L147.38,587.78L145.42,585.44L142.09,582.25L141.75,580.77L141.2,580.09L139.26,578.76L138.37,578.36L139.22,578.16Z" fill="#dadada" stroke="#fff" stroke-width="0.5" id="MY-01" data-name="Johor"/>
    <path d="M751.52,441.77L750.02,444.63L749.37,444.97L746.7,445.35L745.17,445.75L744.53,446.17L743.79,448.05L743.25,448.5L741.87,448.64L741.15,449.07L740.94,450.01L740.97,450.91L742.03,452.68L742.22,453.92L742.72,458.47L742.64,460.27L742.91,463.41L743.25,464.04L743.78,464.37L745.4,464.73L745.71,464.92L745.64,467.33L744.36,469.9L742.72,471.78L742.62,472.54L743.15,472.81L744.31,471.69L744.45,471.78L743.93,473.32L742.11,476.02L741.49,476.58L741.42,477.41L742.49,477.28L742.11,478.04L740.52,479.16L739.71,480.49L738.87,481.56L737.74,482.64L735.5,483.97L733.52,484.59L732.72,484.4L732.78,484.05L733.61,483.14L733.45,482.63L731.85,482.37L730.67,481.62L729.59,479.89L729.24,478.93L728.47,478.14L726.74,477.94L725.57,475.99L724.76,474.24L724.55,473.29L724.47,472.07L724.17,471.69L723.38,471.69L722.83,472.47L722.45,472.61L720.76,472.08L719.39,472.72L718.17,472.42L717.82,472.15L717.75,470.55L718.36,468.4L717.33,467.45L717.21,467.18L717.37,465.22L715.2,461.43L713.88,459.71L712.9,459.08L712.44,458.94L711.86,459.14L710.71,457.65L709.95,457.23L708.54,456.89L712.04,456.74L714.77,456.31L718.96,455.01L723.89,453.13L725.43,452.35L727.22,451.28L729.28,449.71L735.93,443.87L740.86,440.65L743.97,438.05L744.62,438.13L752.79,434.75L754.08,434.36L754.47,434.77L755.74,434.71L754.59,435.54L754.33,436.53L753.71,436.35L753.02,436.45L753.14,437.53L753.59,438.01L752.62,438.94L752.13,439.82L752.15,440.37L752.52,440.88L752.45,441.3ZM759.03,441.01L759.23,441.81L759.91,442.74L760.56,442.92L760.46,443.47L761.19,444.12L762.74,445.15L763.32,445.9L763.01,447.59L763.15,447.98L763.93,448.67L764.19,449.13L764.28,449.89L764.05,450.88L764.22,451.4L764.74,451.88L764.66,452.63L764.34,453.1L764.69,453.51L765.66,454.19L765.88,455.59L765.69,456.17L765.66,457.12L764.89,458.22L765.05,458.81L764.91,459.9L765.26,460.35L765.25,461.48L765.53,462.19L765.28,463.04L765.77,464.26L766.59,465.17L768.36,466.51L768.92,467.59L769.57,468.34L769.52,469.22L768.81,469.89L767.78,470.4L767.22,470.25L766.77,469.81L766.51,469.11L765.52,468.5L764,468.69L763.75,467.38L763.38,467.1L761.48,467.24L758.94,466.32L757.33,466.52L756.59,465.8L756.8,464.68L756.41,463.12L756.6,461.53L755,456.33L754.37,455.29L754.15,454.57L754.12,453.52L753.94,453.09L753.83,451.95L753.46,451.17L753.65,449.81L753.18,448.27L753.83,446.56L753.28,446.05L753.28,445.45L753.91,445.61L754.66,444.6L755.94,444.09L757.03,443.83L757.23,443.29L756.52,442.68L756.29,441.72L757.21,441.1Z" fill="#dadada" stroke="#fff" stroke-width="0.5" id="BN" data-name="Brunei Darussalam"/>
</svg>