<?xml version="1.0" encoding="UTF-8"?>
<svg xmlns="http://www.w3.org/2000/svg" viewBox="-2 78.21 964 803.57">
  <!-- Generated from amCharts geodata | Mercator projection -->
    <path d="M645.89,273.49L646.22,274.46L644.85,274.49L643.14,275.81L642.47,277.13L641.56,277.21L640.34,276.55L638.64,277.36L638.57,278.09L639.36,280L636.75,281.03L636.38,283.16L635.04,283.45L634.61,284.77L634.06,285.06L632.36,285L630.29,287L628.34,287.85L625.44,287.71L620.31,290.32L617.84,291.39L617.25,292.58L615.23,292.43L615.23,290.97L614.08,290.6L610.17,290.53L609.62,289.8L610.42,288.62L612.86,287.82L612.61,286.49L610.55,285.91L609.93,284.64L610.65,284.13L610.61,282.26L608.82,281.62L608.42,280.87L608.71,279.95L608.2,279.29L607.35,279.6L604.28,282.86L603.51,283.52L602.49,283.73L600.55,283.16L599.75,282.1L600.55,279.02L599.82,278.62L597.04,278.76L596.13,276.47L595.14,275.5L593.72,275.27L592.83,274.48L591.63,274.12L590.46,274.61L587.97,277.83L585.85,278.36L584.64,278.98L581.8,279.07L581.18,280.07L581.53,288.51L582.01,289.09L580.73,289.82L579.57,289.38L578.71,289.97L577.74,289.97L574.14,289.09L570.3,291.37L569.49,293.67L568.07,295.14L568.08,299.63L566.55,301.56L566.9,303.78L563.97,306.52L562.69,310.38L561.37,311.71L555.28,313.91L554.04,315.35L554.48,317.19L553.11,320.19L555.78,323.73L556.06,325.88L553.54,329.72L553.82,332.37L548.95,329.96L546.25,323.14L544.39,322.85L542.23,323.79L539.74,321.95L537.23,322.22L537.11,324.16L538.96,327.51L538.23,330.81L540.21,332.45L539.73,335.22L536.51,336.04L534.63,337.66L532.33,336.42L530.61,336.46L525.91,339.46L524.06,342.37L523.85,348.07L522.75,350.29L525.54,360.8L527.37,361.53L529.54,361.07L530.65,362.14L530.73,363.57L529.44,366.54L530.58,367.21L533.41,365.17L535.44,365.18L536.25,368.17L535.15,374.69L531.49,375.1L530.19,375.91L526.35,381.49L526.31,385.94L522.58,388.4L522.9,391.91L520.86,397.41L520.47,400.82L519.41,402.29L519.36,404.28L517.27,405.99L513.5,413.6L510.52,416.66L510.62,419.31L509.65,422.47L508.51,423.57L508.42,425.28L510.54,424.44L511.38,426.36L510.21,428.16L510.51,431.57L507.95,432.88L508.6,434.68L507.37,438.32L504.16,441.03L503.19,437.53L500.11,439.01L494.04,437.11L488.59,439.83L487.78,441.94L486.21,442.71L486.21,444.19L485.05,445.77L479.02,447.27L479.33,451.91L479.09,452.78L478.12,453.04L476.84,449.16L478.16,440.66L477.92,430.08L476.95,428.68L473.21,431.92L469.53,432.33L468,437.13L466.87,437.95L465.36,429.33L463.07,426.96L461.06,426.24L461.35,413.21L462.43,404.12L462,403.6L458.7,406.25L456.99,405.12L458.87,400.28L455.2,397.92L456.72,392.79L449.09,394.04L447.09,397.82L442.68,401.29L441.2,400.48L431.48,400.85L430.31,397.75L428.89,388.13L429.3,375.69L427.25,369.32L429.53,364.97L434.65,362.93L438.78,357.02L438,355.34L438.03,352.95L435.55,350.76L437.91,349.03L439.27,346.08L442.3,344.68L440.12,340.02L440.73,335.43L441.2,335.73L445.19,331.35L444.63,330.56L451.01,331L455.2,328.73L459.77,330.68L461.87,330.17L463.37,328.66L467.32,327.77L469.58,323.47L470.9,324.71L474.18,324.41L475.56,323.13L474.86,321.95L478.1,320.08L481.02,316.53L483.19,316.54L482.88,315.75L483.66,315.25L482.92,313.81L483.64,312.46L482.23,309.97L480.06,309.15L479.17,307.55L477.87,307.22L476.17,304.23L477.35,297.15L476.47,296.21L474.61,296.14L474.05,291.97L472.45,291.2L469.2,291.71L466.35,291.13L464.77,289.49L464.66,286.05L461.59,280.9L459.56,279.18L460.26,276.96L461.55,276.18L461.53,273.86L466.67,273.24L469.99,275.16L474.8,275.14L478.37,276.76L480.44,276.32L482.85,277.37L487.98,277.55L488.46,278.99L491.8,279.54L492.64,279.26L492.78,278.13L493.75,278.45L496.56,277.31L505.48,277.89L508.36,276.23L511.46,276.54L513.16,274.5L520.71,271.9L521.27,271.24L521.08,268.57L522.16,268.25L524.68,265.24L524.4,262.82L525.14,261.24L523.84,260.43L523.61,258.57L526.12,254.12L526.13,252.92L521.25,250.59L517.71,246.53L517.14,240.71L518.79,241.82L519.87,240.37L522.39,239.11L523.94,236.27L522.83,234.46L523.11,232.74L529.78,228.86L529.23,227.69L529.98,226.01L531.68,225.13L533.23,220.52L534.2,220.95L540.01,217.24L543.39,216.25L544.44,214.99L546.1,211.6L547.48,211.24L545.69,210.21L544.8,207.29L548.98,204.2L552.67,200.01L552.55,198.83L550.01,197.71L546.4,193.41L551.74,185.88L551.5,184.32L549.13,180.88L550.43,177.56L548.99,176L544.27,174.16L546.9,168.89L546.1,166.96L542.72,164.7L543.94,162.88L542.8,161.86L541.96,159.03L538.13,155.67L537.46,152.55L536.4,151.68L534.62,152.02L533.87,150.8L530.03,148.47L529,146.2L531.01,144L531.15,142.64L533.54,140.39L535.6,140.04L537.36,137.83L540.33,136.4L541.17,133.5L545.97,131.06L546.85,129.88L548.55,129.2L548.86,128.06L548.55,127.08L549.04,126.02L550.75,124.35L551.48,123.14L551.78,121.17L552.39,119.96L553.67,119.96L555.2,121.17L556.9,121.63L560.62,124.58L562.81,124.96L564.03,124.28L563.73,122.84L562.33,122.39L561.47,121.48L561.59,119.59L562.44,118.07L564.77,117.99L566.35,117.46L567.63,114.05L571.9,113.67L574.15,112.08L576.16,112L576.4,110.79L576.22,109.26L577.38,108.58L580.67,108.28L581.77,107.59L581.4,106L581.89,103.87L583.53,101.9L585.55,102.35L587.37,102.27L588.71,101.67L590.91,101.74L592.43,100.52L595.78,100.37L597.31,99.23L599.26,97.33L602.83,96.38L604.05,95.69L605.94,96.45L609.84,95.92L612.64,96.53L617.52,96.22L620.26,94.54L621.78,95.16L623.19,95.01L626.41,93.17L628.85,93.17L632.93,93.56L636.35,93.25L637.5,94.32L640.25,93.63L642.26,92.49L644.76,93.03L647.19,92.64L649.02,93.48L650.3,93.71L651.65,92.49L654.99,91.94L656.77,95.02L659.02,95.75L662.04,97.09L663.41,98.67L665.16,99.16L666.43,101.84L665.55,105.12L663.21,105.24L662.93,104.96L659.13,104.15L657.53,104.67L655.71,104.22L653.62,105.35L649.82,105.04L648.64,103.66L644.54,103.82L640.66,102.22L638.01,102.55L632.49,104.79L627.85,104.04L625.22,105.73L622.88,106.1L622.26,107.64L623.54,111.56L621.62,115.88L617.96,118.37L617.74,120.11L613.41,121.27L612.16,126.19L604.9,130.79L603.25,133.26L599.7,133.12L597.32,134.69L596.25,137.19L596.44,140.86L595.14,144.3L597.62,149.56L594.85,156.34L596.71,157.55L598.03,159.78L602.94,161.52L610.85,159.13L618.59,160.54L623.06,158.71L624.54,158.87L626.16,160.24L625.52,165.2L626.77,168.43L634.2,174.42L641.03,176.97L659.77,180.17L661.13,181.33L658.77,184.98L656.42,186.59L655.63,188.89L655.6,194.04L657.02,199.08L660.78,198.06L663.32,199.94L666.7,199.84L668.73,201.47L671.45,202.34L672.65,203.98L675.14,203.49L677.5,205.15L674.39,207.32L674.21,209.16L675.39,211.8L673.88,213.19L673.67,215.72L670.15,221.23L666.3,223.77L662.51,223.76L657.01,226.98L655.84,230.13L653.79,232.02L654.35,235.05L652.64,239.96L651.81,240.14L649.59,238.66L643.6,239.65L642.48,240.7L640.25,252.97L641.02,255.53L643.6,258.06Z" fill="#dadada" stroke="#fff" stroke-width="0.5" id="PK-KP" data-name="Khyber Pakhtunkhwa"/>
    <path d="M297.72,811.59L300.61,808.18L305.65,804.85L309.56,804.3L313.74,799.68L313.91,796.15L316.38,792.84L319.36,790.83L320.94,787.02L320.7,782.38L323.96,776.59L326.48,775.41L327.33,771.91L331.69,768.44L332.34,764.93L334.86,760.23L335.26,756.57L334.53,752.43L335.74,743.04L321.1,717.28L319.96,709.93L320.8,704.75L319.83,698.61L320.62,692.59L319.08,675.8L319.19,673.21L321.3,667.84L321.97,661.01L324.7,657.87L326.11,652.93L328.94,650.7L330.92,647.86L332.22,641.65L333.15,640.78L345.71,638.85L350.75,637.14L355.76,634.11L359.31,633.21L362.07,628.6L377.53,616.25L383.19,613.63L386,609.09L388.03,607.4L395.17,606.24L404.08,606.95L434.52,605.69L440.1,603.24L445.6,604.18L445.62,605.8L452.69,606.98L453.56,609.93L456.02,610.64L456.31,614.89L457.63,616.03L457.51,618.01L460.85,627.35L463.97,632.68L468.23,636.69L476.75,640.59L471.66,647.43L466.97,659.62L462.87,662.74L459.07,668.47L449.03,677.2L444.53,682.14L441.21,690.69L439.69,702.8L441.32,706.59L451.9,711.54L456.68,715.07L459.96,715.7L469.53,714.66L473.25,716.09L474.73,717.44L475.56,721.1L474.57,732.3L474.99,734.92L473.58,739.42L470.37,744.69L471.06,752.07L475.26,759.18L478.66,762.21L480.46,765.9L486.61,768.03L493.6,767.3L497.75,765.6L500.25,766.13L501.03,768.2L500.78,775.98L501.37,776.35L500.67,783.61L504.26,787.48L505.4,790.66L511.95,797.5L514.57,809.35L518.57,815.75L521.09,821.91L522.85,823.67L518.41,826.5L517.39,828.26L517.27,831.53L518.14,832.57L517.75,837.1L523.45,837.73L524.23,838.7L523.76,839.88L521.88,840.52L519.78,842.44L518.03,842.46L517.28,841.69L515.3,842.5L511.48,845.62L511.94,847.51L507.41,849.44L499.7,849.31L495.55,847.78L496.25,845.92L495.45,845.46L496.23,844.53L495.44,842.59L497.48,839.45L494.83,838.43L485.11,842.1L472.23,845.62L469.18,851.12L467.37,852.44L465.05,852.68L452.03,852.12L445.69,846.34L440.59,847.63L437.03,846.58L433.46,847L430.81,846.41L425.15,848.74L419.68,846.84L414.94,849.26L413.41,848.61L411.84,845.58L410.3,845.9L409.2,847.11L409.05,848.63L408.06,850.63L407.12,850.25L406.03,844.63L402.84,845.99L402.07,864.07L391.72,864L385.02,864.16L383.54,863.85L382.71,862.84L380.85,863.55L380.52,865.86L378.66,865.67L377.64,867.58L375.39,868.92L374.66,870.68L374.34,874.56L373.98,874.73L373.15,876.38L372.18,876.01L372.96,872.92L373.78,871.11L373.2,870.04L371.93,869.51L372.47,871.32L371.3,875.85L371.25,876.7L372.23,878.19L372.32,879.26L371.79,879.79L370.27,878.72L369.74,877.39L369.2,877.61L369.11,879.09L368.62,879.26L368.08,878.08L366.67,877.97L366.57,877.29L367.06,876.06L367.99,875.37L367.93,873.45L368.86,872.76L368.23,870.94L367.35,870.57L366.62,869.02L366.67,867.91L367.45,866.79L365.94,866.58L365.35,865.61L364.77,866.36L365.64,867.91L365.64,869.99L366.47,871.8L366.33,872.7L365.4,873.93L365.45,874.84L364.37,875.21L364.04,873.34L363.45,872.92L362.43,873.45L361.48,872.92L360.46,871.75L359.09,871.32L359.33,869.99L358.12,869.51L357.04,870.41L356.7,869.61L357.04,867.7L356.51,867.26L355.83,869.02L355.97,871.91L355.73,872.87L354.8,873.02L352.75,872.01L350.95,871.85L351.05,873.34L350.46,873.77L348.71,874.04L347.01,873.45L345.37,873.45L344.91,872.69L344.88,871.58L345.58,870.69L346.04,869.49L346.19,866.49L345.4,866.65L345.21,867.46L345.27,869.79L344.3,870.62L343.2,870.09L342.74,868.96L342.05,869.35L340.77,867.99L339.73,868.86L337.96,868.96L337.93,868.35L339.03,868.02L339.64,866.49L338.42,866.12L338.51,863.68L337.87,863.45L335.83,863.36L335.42,862.34L333.43,861.56L333.33,860.71L332.47,859.89L331.75,858.49L330.13,857.49L329.67,854.12L328.33,852.32L327.42,849.94L327.42,848.91L327.81,848.21L327.11,846.24L327.48,845L327.48,843.49L328.03,842.89L330.22,842.19L328.51,841.76L327.17,842.05L326.56,840.52L326.68,838.41L325.72,838.65L325.58,837.01L324.78,835.56L323.38,833.95L323.38,833.23L324.33,832.47L323.79,831.62L322.69,831.71L322.18,829.89L323.05,829.45L324.48,829.57L325.36,828.77L324.3,828.45L323.02,827.4L320.35,827.6L320.02,825.75L320.24,824.79L321.85,823.42L322.83,821.59L323.49,821.23L324.95,821.3L325.54,820.98L325.5,820.06L324.26,818.29L322.47,819.37L321.08,819.13L320.17,817.4L319.25,816.92L318.08,817.68L316.8,816.99L316.25,817.52L316.33,818.77L315.38,818.73L313.55,816.23L312.27,816.03L310.84,815.35L310,815.39L310.44,816.48L309.97,816.76L308.94,816.35L307.77,815.06L306.36,814.04L305.03,813.73L303.93,814.05L302.72,815.1L298.96,814.42L297.72,815.06L294.68,815.54L294.02,815.1L294.9,814.22L295.27,812.73L297.9,812.15Z" fill="#dadada" stroke="#fff" stroke-width="0.5" id="PK-SD" data-name="Sindh"/>
    <path d="M615.23,292.43L613.34,292.51L611.82,292.94L609.14,294.12L608.53,295.44L609.26,296.9L610.54,297.78L612.31,301.51L613.71,302.1L614.93,301.29L615.97,300.19L616.15,298.88L617.67,298.95L620.6,297.01L622,296.83L623.34,299.61L624.99,301.29L625.1,302.68L623.27,304.07L623.52,304.88L625.29,306.04L627.18,306.85L628.64,306.63L631.32,303.85L632.78,301.88L633.03,297.85L633.39,296.75L635.65,296.1L637.11,294.05L636.2,292.87L636.2,291.85L635.34,291.55L634.49,292L631.99,289.35L630.29,287L632.36,285L634.06,285.06L634.61,284.77L635.04,283.45L636.38,283.16L636.75,281.03L639.36,280L638.57,278.09L638.64,277.36L640.34,276.55L641.56,277.21L642.47,277.13L643.14,275.81L644.85,274.49L646.22,274.46L646.94,276.59L649.79,282.39L648.83,288.13L650.15,290.71L650.48,293.69L649.2,295.79L648.94,298.27L651.91,301.67L652.15,304.28L651.12,305.12L650.96,306.4L651.9,308.38L650.39,309.64L649.03,313.75L649.75,315.77L650.9,316.13L650.5,317.25L651.32,319.18L650.82,320.15L651.77,323.31L653.63,324.59L653.7,326.92L651.9,328.7L651.98,330.74L658.23,333.28L659.44,335.1L661.08,335.98L664.89,334.37L666.98,334.44L671.17,339.48L687.91,347.79L689.77,350.37L691.24,350.61L694.67,349.23L698.25,352.34L702.48,351.3L703.88,349.22L703.91,347.33L706.72,346.31L704.32,353.7L705.66,357.37L703.92,360.23L704.44,363.32L705.88,364.66L706.2,367.4L709.28,368.25L713.81,367.21L720.87,370.14L723.79,367.48L726.47,368.19L728.79,371.76L729.8,372.23L731.9,371.56L732.26,372.73L734.1,373.1L739.17,377.19L739.65,379.8L741.04,381.01L740.85,383.07L738.49,385.6L738.34,387.64L736.75,388.66L736.18,390.45L734.5,392L733.91,392.15L733.65,390.46L732.25,390.21L731.72,392.2L730.66,393.15L729.64,392.25L728.2,392.26L726.97,393.66L722.49,395.52L718.45,393.3L716.98,394.28L715.71,394.21L715.33,395.82L714.06,396.03L714.35,396.7L712.94,397.41L712.47,399.96L709.32,400.14L708.72,401.04L707.35,399.8L707.05,401.79L704.82,402.2L702.91,404.42L701.77,404.14L700.76,406.7L699.52,407.59L698.89,410.75L699.29,412.15L697.56,412.63L697.52,413.97L701.8,423.3L701.95,425.33L700.46,426.1L700,427.28L703.11,428.18L702.82,428.7L703.91,429.78L703.05,431.96L701.48,433.56L699.29,439.47L698.18,439.46L697.2,441.04L697.77,442.53L696.7,446.47L696.87,449.05L698.86,450.06L699.29,452.22L701.01,451.64L701.37,449.36L702.86,449.14L703.35,450.08L704.37,449.27L705.71,449.52L706.59,451.63L705.45,453.65L702.91,454.52L701.77,454.73L699.62,453.3L698.26,456.58L698.58,457.72L696.46,459.29L695.13,459.37L692.57,461.76L692.34,462.95L689.74,464.18L689.62,466.54L688.58,466.02L687.22,466.43L685.66,469.3L686.26,470.3L684.45,471.18L685.46,473.43L682.92,474.07L678.75,479.25L677.09,479.27L676.6,480.85L675.68,480.42L675.77,482.65L674.5,483.87L675.35,484.46L674.43,485.93L672.76,484.98L670.19,487.1L669.11,489.65L667.71,489.33L667.33,491.83L666.07,492.08L664.43,494.94L666.34,496.83L668.86,501.28L669.3,505.24L660.12,512.85L651.11,515.46L639.85,520.45L633.7,542.92L624.38,561.03L619.8,567L616.82,574.04L605.01,579.44L588.29,589.44L584.04,595.23L578.03,613.12L568.37,621.9L565.16,626.55L563.33,636.39L551.08,641.52L538.35,641.7L531.34,643.08L511.43,651.39L504.95,650.3L500.89,643.25L499.98,637.95L494.96,632.77L493.3,632.03L490.68,631.96L484.9,633.44L481.65,637.04L476.75,640.59L468.23,636.69L463.97,632.68L460.85,627.35L457.51,618.01L457.63,616.03L456.31,614.89L456.02,610.64L453.56,609.93L452.69,606.98L445.62,605.8L445.6,604.18L440.1,603.24L434.52,605.69L432.04,601.69L431.86,600.05L436.36,597.53L439.69,592.48L442.28,586.33L440.6,583.68L441.06,579.8L444.77,576.35L448.1,571.16L451.12,569.45L453.41,558.38L452.54,557.19L450.36,558.74L448.31,555.69L449.32,553.61L448.87,552.08L443.95,550.06L445.69,543.88L445.61,537.3L447.19,535.28L452.98,533.57L454.6,530.52L457.8,528.3L464.29,513.71L464.26,509.53L467.21,506.55L468.61,503.97L468.59,502.29L467,501.7L465.69,501.96L464.08,503.74L463.85,500.86L462.2,499.97L463.92,495.85L464.15,491.51L470.05,481.2L468.92,478.67L469.36,475.65L469.98,474.77L472.34,474.6L472.85,472.53L474.87,472.3L475.42,468.81L478.7,468.19L478.86,466.22L477.55,465.36L477.48,464.48L478.12,453.04L479.09,452.78L479.33,451.91L479.02,447.27L485.05,445.77L486.21,444.19L486.21,442.71L487.78,441.94L488.59,439.83L494.04,437.11L500.11,439.01L503.19,437.53L504.16,441.03L507.37,438.32L508.6,434.68L507.95,432.88L510.51,431.57L510.21,428.16L511.38,426.36L510.54,424.44L508.42,425.28L508.51,423.57L509.65,422.47L510.62,419.31L510.52,416.66L513.5,413.6L517.27,405.99L519.36,404.28L519.41,402.29L520.47,400.82L520.86,397.41L522.9,391.91L522.58,388.4L526.31,385.94L526.35,381.49L530.19,375.91L531.49,375.1L535.15,374.69L536.25,368.17L535.44,365.18L533.41,365.17L530.58,367.21L529.44,366.54L530.73,363.57L530.65,362.14L529.54,361.07L527.37,361.53L525.54,360.8L522.75,350.29L523.85,348.07L524.06,342.37L525.91,339.46L530.61,336.46L532.33,336.42L534.63,337.66L536.51,336.04L539.73,335.22L540.21,332.45L538.23,330.81L538.96,327.51L537.11,324.16L537.23,322.22L539.74,321.95L542.23,323.79L544.39,322.85L546.25,323.14L548.95,329.96L553.82,332.37L553.54,329.72L556.06,325.88L555.78,323.73L553.11,320.19L554.48,317.19L554.04,315.35L555.28,313.91L561.37,311.71L562.69,310.38L563.97,306.52L566.9,303.78L566.55,301.56L568.08,299.63L568.07,295.14L569.49,293.67L570.3,291.37L574.14,289.09L577.74,289.97L578.71,289.97L579.57,289.38L580.73,289.82L582.01,289.09L581.53,288.51L581.18,280.07L581.8,279.07L584.64,278.98L585.85,278.36L587.97,277.83L590.46,274.61L591.63,274.12L592.83,274.48L593.72,275.27L595.14,275.5L596.13,276.47L597.04,278.76L599.82,278.62L600.55,279.02L599.75,282.1L600.55,283.16L602.49,283.73L603.51,283.52L604.28,282.86L607.35,279.6L608.2,279.29L608.71,279.95L608.42,280.87L608.82,281.62L610.61,282.26L610.65,284.13L609.93,284.64L610.55,285.91L612.61,286.49L612.86,287.82L610.42,288.62L609.62,289.8L610.17,290.53L614.08,290.6L615.23,290.97Z" fill="#dadada" stroke="#fff" stroke-width="0.5" id="PK-PB" data-name="Punjab"/>
    <path d="M739.17,377.19L734.1,373.1L732.26,372.73L731.9,371.56L729.8,372.23L728.79,371.76L726.47,368.19L723.79,367.48L720.87,370.14L713.81,367.21L709.28,368.25L706.2,367.4L705.88,364.66L704.44,363.32L703.92,360.23L705.66,357.37L704.32,353.7L706.72,346.31L703.91,347.33L703.88,349.22L702.48,351.3L698.25,352.34L694.67,349.23L691.24,350.61L689.77,350.37L687.91,347.79L671.17,339.48L666.98,334.44L664.89,334.37L661.08,335.98L659.44,335.1L658.23,333.28L651.98,330.74L651.9,328.7L653.7,326.92L653.63,324.59L651.77,323.31L650.82,320.15L651.32,319.18L650.5,317.25L650.9,316.13L649.75,315.77L649.03,313.75L650.39,309.64L651.9,308.38L650.96,306.4L651.12,305.12L652.15,304.28L651.91,301.67L648.94,298.27L649.2,295.79L650.48,293.69L650.15,290.71L648.83,288.13L649.79,282.39L646.94,276.59L645.89,273.49L643.6,258.06L641.02,255.53L640.25,252.97L642.48,240.7L643.6,239.65L649.59,238.66L651.81,240.14L652.64,239.96L654.35,235.05L653.79,232.02L655.84,230.13L657.01,226.98L662.51,223.76L666.3,223.77L670.15,221.23L673.67,215.72L673.88,213.19L675.39,211.8L674.21,209.16L674.39,207.32L677.5,205.15L678.62,206.06L680.96,206.42L683.89,208.45L685.55,208.69L687.31,207.25L688.96,207.5L690.81,206.78L694.23,204.64L696.37,204.16L697.74,204.52L702.32,211.67L702.42,216.66L703.1,218.21L705.34,218.09L707.49,218.92L711.49,222.49L717.24,224.86L718.99,225.46L720.16,226.29L721.33,225.81L723.92,223.19L724.64,223.24L725.46,224.2L726.95,223.57L727.83,220.56L728.56,219.9L729.75,219.71L730.42,220.68L731.4,222.85L732.44,223.93L734.33,224.93L735.06,226.23L735.51,227.82L735.79,230.12L735.79,232.05L735.21,233.27L733.27,234.65L735.03,234.94L735.87,235.43L735.66,237.22L740.2,240.24L746.04,241.42L753.77,241.72L760.62,243.14L765.44,239.48L769.3,237.6L770.71,235.96L773.04,236.03L775.33,233.52L777.28,233.15L779.71,234.99L781.55,235.2L786.79,232.64L789.66,229.7L793.23,229.44L797.76,225.79L802.24,228.04L808.39,227.96L811.53,222.94L811.85,217.54L815,216.98L818.03,214.67L823.17,216.97L824.56,216.75L825.61,210.54L828.19,211.44L832.72,209.53L858.01,189.94L866.89,181.51L867.87,181.52L869.49,183.53L871.58,184.01L873.77,183.23L876.26,180.24L877.78,179.58L879.73,180L880.41,180.78L880.65,182.57L878.94,186.47L877.97,189.63L877.33,192.62L878.36,196.15L879.97,199.19L881.49,202.71L884.91,206.77L885.39,210.22L885.59,214.39L886.76,217.72L888.61,219.38L889.68,222L890.75,225.09L892.34,233.56L896.04,236.76L898.97,237.71L902.77,238.65L907.06,238.53L911.35,239.01L914.47,241.02L917.78,243.98L920.22,247.06L922.95,248L926.17,248.83L928.51,250.6L929.68,254.38L929.77,259.22L927.73,262.17L923.63,264.53L920.42,265.94L917.49,266.88L916.03,268.41L915.74,271L916.62,273.95L919.35,281.82L920.22,283.93L920.71,290.97L920.42,297.65L920.71,302.34L922.08,305.5L924.02,307.36L926.27,308.65L928.22,312.04L929.58,313.58L930.56,315.21L933,315.45L934.94,316.38L935.92,318.25L936.02,320.35L937.28,321.05L938.94,319.65L940.21,320.12L942.65,321.74L946.45,322.45L948.59,321.98L950.25,321.86L951.91,323.03L952.5,325.01L951.42,326.41L950.16,328.97L950.06,334.9L950.74,337.46L952.69,338.63L954.74,340.6L955.91,342.23L956,344.31L957.57,346.75L959.22,348.15L960,350.58L959.12,353.02L957.37,355.91L954.15,359.39L950.25,362.17L948.89,364.24L947.23,364.48L945.77,363.67L944.31,363.55L942.45,364.13L939.72,365.52L938.26,366.67L938.16,369.91L937.48,371.65L935.53,371.99L933.87,371.88L930.56,373.26L928.9,373.14L927.14,371.99L924.61,369.33L921.2,367.83L920.12,366.1L919.71,362.97L919.03,360.77L919.81,359.27L919.42,357.42L918.06,356.72L915.71,357.18L914.74,359.16L913.09,360.2L911.23,360.54L909.77,361.36L907.82,360.89L905.97,359.85L904.6,360.31L903.43,361.36L901.19,361.7L899.83,362.51L897.1,365.06L895.53,366.79L894.37,367.37L893.48,366.33L893.39,364.37L894.17,362.4L894.17,360.66L895.44,359.04L898.36,356.72L898.94,354.76L899.04,351.86L898.17,349.19L896.6,348.5L894.95,348.96L895.34,351.4L893.19,352.09L891.05,354.06L888.71,353.94L886.76,355.57L884.52,355.57L882.86,356.95L882.56,358.35L881.69,359.27L879.35,360.08L878.28,359.5L877.79,356.38L874.96,354.29L875.06,348.84L873.79,347.79L872.43,347.56L871.16,343.73L869.8,340.83L864.53,336.18L864.33,334.55L863.26,334.21L858.29,337.58L854.49,340.83L851.27,341.65L847.56,342.23L845.61,343.97L843.95,344.2L841.61,343.62L837.76,341.99L833.07,340.68L830.51,338.59L826.64,335.98L824.52,335.19L822.4,333.7L820.86,331.17L816.99,328.64L814.35,325.24L810.85,325.56L805.58,326.59L803.27,323.88L801.51,323.72L797.49,325.53L793.53,325.11L787.55,330.17L785.62,334.54L778.26,336.23L777.67,338.43L770.69,343.54L766.66,340.79L763.62,340.81L762.95,344.45L767,347.89L768.98,351.34L768.16,355.36L769.55,358.24L763.44,367.77L760.45,368.42L758.69,371.94L749.35,376.15L747.92,380.56L747.35,378.49L746.2,378.04L746.43,376.68L743.5,377.64Z" fill="#dadada" stroke="#fff" stroke-width="0.5" id="PK-JK" data-name="Azad Jammu and Kashmir"/>
    <path d="M654.99,91.94L655.91,91.91L657.37,92.67L662.83,92.16L672.44,96.14L677.15,96.45L678.81,92.08L683.95,92.69L692.56,86.56L697.52,86.38L698.51,88.54L699.62,88.86L700.3,84.1L702.33,83.11L702.77,80.6L706.02,80.21L707.14,83.24L709.03,84.9L710.42,84.66L713.63,82.31L714.63,87.08L718.27,90.5L723.54,85.58L725.64,85.96L729.77,85.03L730.76,87.03L734.4,89.03L737.55,88.52L742.83,89.98L743.25,90.5L742.16,92.07L743.62,94.15L743.9,100.93L745.52,104.13L746.24,104.46L747.81,103.51L749.45,104.06L749.24,102.04L750.22,101.26L755.67,101.12L759.62,102.54L762.66,104.65L769.31,110.59L770.02,115.14L772.55,118.39L774.77,124.06L774.75,125.32L772.6,128.62L772.86,131.42L773.97,131.7L776.31,135.62L773.79,136.01L773.55,138.27L774.45,139.46L771.71,139.9L771.5,140.94L770.23,141.55L770.71,145.64L773.55,148.88L778.17,149.11L781.77,154.59L782.44,160.57L784.82,159.46L791.32,160.57L793.62,158.19L796.45,158.21L797.82,156.81L799.38,157.16L802.52,155.23L803.71,156.79L803.07,161.48L803.99,163.63L807.58,165.32L812,170.62L817.11,170.8L822.31,174.89L827.59,175.33L829.5,177.4L834.25,179.81L840.68,179.65L845.23,183.56L852.14,181.84L855.7,183.05L860.32,182.82L865.53,180.52L867.87,181.52L866.89,181.51L858.01,189.94L832.72,209.53L828.19,211.44L825.61,210.54L824.56,216.75L823.17,216.97L818.03,214.67L815,216.98L811.85,217.54L811.53,222.94L808.39,227.96L802.24,228.04L797.76,225.79L793.23,229.44L789.66,229.7L786.79,232.64L781.55,235.2L779.71,234.99L777.28,233.15L775.33,233.52L773.04,236.03L770.71,235.96L769.3,237.6L765.44,239.48L760.62,243.14L753.77,241.72L746.04,241.42L740.2,240.24L735.66,237.22L735.87,235.43L735.03,234.95L733.27,234.65L735.21,233.27L735.79,232.05L735.79,230.12L735.51,227.82L735.06,226.23L734.33,224.93L732.44,223.93L731.4,222.85L730.42,220.68L729.75,219.71L728.56,219.9L727.83,220.56L726.95,223.57L725.46,224.2L724.64,223.24L723.92,223.19L721.33,225.81L720.16,226.29L718.99,225.46L717.24,224.86L711.49,222.49L707.49,218.92L705.34,218.09L703.1,218.21L702.42,216.66L702.32,211.67L697.74,204.52L696.37,204.16L694.23,204.64L690.81,206.78L688.96,207.5L687.31,207.25L685.55,208.69L683.89,208.45L680.96,206.42L678.62,206.06L677.5,205.15L675.14,203.49L672.65,203.98L671.45,202.34L668.73,201.47L666.7,199.84L663.32,199.94L660.78,198.06L657.02,199.08L655.6,194.04L655.63,188.89L656.42,186.59L658.77,184.98L661.13,181.33L659.77,180.17L641.03,176.97L634.2,174.42L626.77,168.43L625.52,165.2L626.16,160.24L624.54,158.87L623.06,158.71L618.59,160.54L610.85,159.13L602.94,161.52L598.03,159.78L596.71,157.55L594.85,156.34L597.62,149.56L595.14,144.3L596.44,140.86L596.25,137.19L597.32,134.69L599.7,133.12L603.25,133.26L604.9,130.79L612.16,126.19L613.41,121.27L617.74,120.11L617.96,118.37L621.62,115.88L623.54,111.56L622.26,107.64L622.88,106.1L625.22,105.73L627.85,104.04L632.49,104.79L638.01,102.55L640.66,102.22L644.54,103.82L648.64,103.66L649.82,105.04L653.62,105.35L655.71,104.22L657.53,104.67L659.13,104.15L662.93,104.96L663.21,105.24L665.55,105.12L666.43,101.84L665.16,99.16L663.41,98.67L662.04,97.09L659.02,95.75L656.77,95.02Z" fill="#dadada" stroke="#fff" stroke-width="0.5" id="PK-GB" data-name="Gilgit-Baltistan"/>
    <path d="M431.48,400.85L441.2,400.48L442.68,401.29L447.09,397.82L449.09,394.04L456.72,392.79L455.2,397.92L458.87,400.28L456.99,405.12L458.7,406.25L462,403.6L462.43,404.12L461.35,413.21L461.06,426.24L463.07,426.96L465.36,429.33L466.87,437.95L468,437.13L469.53,432.33L473.21,431.92L476.95,428.68L477.92,430.08L478.16,440.66L476.84,449.16L478.12,453.04L477.48,464.48L477.55,465.36L478.86,466.22L478.7,468.19L475.42,468.81L474.87,472.3L472.85,472.53L472.34,474.6L469.98,474.77L469.36,475.65L468.92,478.67L470.05,481.2L464.15,491.51L463.92,495.85L462.2,499.97L463.85,500.86L464.08,503.74L465.69,501.96L467,501.7L468.59,502.29L468.61,503.97L467.21,506.55L464.26,509.53L464.29,513.71L457.8,528.3L454.6,530.52L452.98,533.57L447.19,535.28L445.61,537.3L445.69,543.88L443.95,550.06L448.87,552.08L449.32,553.61L448.31,555.69L450.36,558.74L452.54,557.19L453.41,558.38L451.12,569.45L448.1,571.16L444.77,576.35L441.06,579.8L440.6,583.68L442.28,586.33L439.69,592.48L436.36,597.53L431.86,600.05L432.04,601.69L434.52,605.69L404.08,606.95L395.17,606.24L388.03,607.4L386,609.09L383.19,613.63L377.53,616.25L362.07,628.6L359.31,633.21L355.76,634.11L350.75,637.14L345.71,638.85L333.15,640.78L332.22,641.65L330.92,647.86L328.94,650.7L326.11,652.93L324.7,657.87L321.97,661.01L321.3,667.84L319.19,673.21L319.08,675.8L320.62,692.59L319.83,698.61L320.8,704.75L319.96,709.93L321.1,717.28L335.74,743.04L334.53,752.43L335.26,756.57L334.86,760.23L332.34,764.93L331.69,768.44L327.33,771.91L326.48,775.41L323.96,776.59L320.7,782.38L320.94,787.02L319.36,790.83L316.38,792.84L313.91,796.15L313.74,799.68L309.56,804.3L305.65,804.85L300.61,808.18L297.72,811.59L296.43,811.53L295.94,811.11L295.73,809.29L296.41,807.93L296.49,805.48L297.12,802.99L296.75,801.98L296.75,800.69L297.56,798.42L298.4,797.78L298.87,795.72L298.51,794.1L297.96,792.85L297.04,791.72L295.51,790.95L293.32,788.6L289.77,786.22L288.89,784.76L289.31,784.03L290.24,784.45L290.85,784.21L291.34,783.27L291.03,781.63L289.59,780.68L288.79,779.36L288.66,776.79L287.91,776.26L287.06,776.85L285.79,776.07L285.55,774.96L284.35,773.88L283.11,772.09L281.04,772.2L279.82,771.78L279.04,771.16L278.06,771.21L277.14,771.73L275.21,771.49L274.65,771.13L273.19,771.95L271.29,772.11L269.75,773.27L268.24,775.32L268.02,776.81L266.21,777.97L266.05,779.08L267.29,778.97L267.82,778.51L269.34,778L270.73,778.19L272.34,777.78L274.21,775.22L274.82,774.7L277.11,774.3L278.26,774.38L279.5,775.78L280.55,776.08L281.5,776.76L282.48,778.32L284.01,777.78L285.23,777.83L286.06,778.62L284.64,779.89L284.94,780.43L286.21,780.99L287.15,782.31L286.67,783.18L285.01,782.69L283.01,781.02L281.72,780.45L277.96,779.48L275.4,779.1L271.58,779.75L268.92,780.59L266.61,780.67L265.8,780.27L262.93,780.86L261.58,781.61L259.61,782.12L252.98,782.07L249.67,784.23L245.35,785.27L244.01,786.32L238.77,785.46L234.19,784.11L232.77,783.81L230.56,785.07L229.3,785.11L229.58,783.64L227.2,783.65L225.46,784.87L224.7,785.09L222.7,784.24L221.82,784.63L220.07,786.24L219.56,787.9L218.8,788.86L217.2,789.27L215.59,789.01L214.55,788.36L213.5,788.14L210.49,788.13L207.72,787.86L205.86,787.16L204.7,787.56L202.2,787.69L200.95,787.29L200.46,787.69L199,787.43L196.93,787.66L195.41,788.16L194.31,788.91L193.24,790.02L192.75,791.3L192.48,793.69L192.97,794.23L194.8,795.18L194.74,795.54L191.32,796.58L189.4,796.08L189.83,795.01L190.62,794.57L190.68,792.68L190.32,792.04L188.76,791.17L187.88,791.13L186.57,790.42L184.37,790.56L183.76,792.01L181.66,792.51L180.14,792.38L178.77,790.79L177.4,789.95L176.27,789.65L172.77,789.44L171.09,787.97L170.51,788.33L168.62,787.9L165.58,787.66L163.17,787.16L163.02,786.48L163.93,784.56L162.44,782.74L163.05,781.45L163.78,781.19L165.24,781.93L166.37,780.78L166.12,780.21L165.15,780.44L164.17,780.14L162.98,780.68L161.19,780.65L160.06,780.11L159.85,780.75L158.42,781.59L158.84,783.75L159.7,783.45L160.34,782.26L161.49,782.67L162.34,785.06L162.13,786.48L161.62,786.82L159.79,786.18L158.54,786.95L154.67,786.92L153.54,786.58L151.07,785.44L148.12,784.63L147.17,784.59L145.59,783.82L143.2,783.85L141.37,784.1L140.29,784.75L137.01,785.34L135.53,785.92L133.46,787.5L132.6,789.72L131.32,790.03L131.85,791.7L132.78,792.75L133.99,793.4L133.02,795.26L131.17,794.63L129.04,793.62L127.33,793.26L124.9,793.46L122.13,793.36L120.37,792.57L116.33,791.4L113.42,791.5L111.08,793.02L109.01,793.3L107.72,793.81L105.07,793.36L102.8,792.71L100.04,792.41L97.94,791.89L94.41,791.2L88.63,791.36L86.71,791.06L82.84,791.47L80.26,792.08L79.71,793.46L80.56,794.27L78.43,794.2L77.12,794.44L73.8,796.69L73.16,798.51L73.55,799.19L75.71,799.42L75.71,800.63L74.93,800.83L71.97,800.8L70.9,800.56L70.39,800.02L70.87,799.28L71.76,799.28L72.27,798.41L72.46,796.43L71.94,795.41L70.08,793.97L68.62,793.53L66.49,793.57L64.08,793.81L61.16,794.42L60.17,795.51L59.59,796.84L59.73,797.53L60.57,798.29L61.34,799.83L60.76,800.23L59.59,799.75L57.43,799.39L53.52,799.19L50.81,800.04L49.1,800.76L49.53,801.93L48.47,802.61L48.11,804.19L45.51,803.5L44.6,804.15L43.61,804.39L41.78,802.94L42.36,802.29L42.26,800.76L43.61,799.95L43.97,798.38L45,796.96L44.96,795.63L44.38,795.27L43.61,796.36L42.77,796.24L40.14,794.7L38.89,795.31L37.58,794.54L36.42,794.63L38.73,788.82L40.02,768.57L41.35,766.75L40.49,764.96L40.45,760.33L44.53,760.19L45.13,759.25L48.58,735.89L49.75,734.83L54.24,733.58L59.5,730.9L62.58,730.82L63.16,726.64L70.84,728.44L71.29,726.82L69.93,725.34L69.51,723.43L70.85,723.36L72.19,721.68L71.53,720.42L72.05,718.95L77.04,718.09L78.63,716.45L87.52,715.48L90.23,713.67L93.32,713.48L94.11,712.41L96.26,711.62L106.87,711.56L110.23,712.46L116.26,711.91L117.82,706.71L117.43,700.66L122.01,698.87L120.74,695.76L120.7,686.89L123.86,683.69L122.92,681.37L117.03,677.77L110.6,678.25L105.12,680.61L101.36,679.17L98.45,679.45L96.48,678.18L96.4,677.2L99.01,674.11L97.73,672.08L100.19,664.87L98.36,645.22L96.84,635.19L95.72,632.04L97.18,621.78L96.94,617.82L86.71,619.1L77.72,609.6L71.55,606.97L68.66,606.83L65.11,605.57L62.3,605.71L58.59,604.38L46.34,596.67L40.03,589.05L30.98,575.19L30.93,572.33L29.68,570.92L29.25,568.95L26.45,567.69L27.11,564.27L24.8,562.65L23.48,559.05L24.24,555.18L15.02,546.13L0,526.39L52.47,543.73L56.66,545.89L76.69,552.87L81.04,553.55L113.55,549.66L122.93,549.69L126.79,548.5L141.65,547.67L157.25,550.65L163.65,554.28L165.96,554.41L167.7,552.37L167.24,550.15L168.48,548.52L171.25,547.52L172.65,545.93L175.58,545.97L181.67,544.09L181.69,542.77L183.79,542.05L191.18,541.51L205.8,542.95L208.06,542.33L212.8,544.24L250.34,533.01L250.31,534.46L254.86,531.94L261.18,530.68L261.37,529.84L274.91,526.12L276.1,524.83L275.32,523.94L279.54,519.25L279.77,518.44L273.46,512.85L274.48,509.91L276.78,508.03L276.45,506.35L279.15,499.21L279.35,493.8L280.73,490.99L279.5,489.92L280.54,488.74L279.91,487.42L276.57,485.75L276.34,484.85L277.7,478.61L280.96,471.89L279.65,470.08L281.22,466.95L283.2,466.04L285.97,462.11L284.65,462.02L284.64,461.17L291.64,459.67L293.65,457.72L294.78,455.09L296.95,453.62L299.2,445.86L298.66,444.65L301.87,444.59L304.03,441.52L307.47,439.61L313.15,438.68L312.81,439.77L314.64,440.15L313.2,443.32L315.64,445.16L317.74,444.49L320.63,444.77L328.09,446.42L337.93,443.89L336.65,443.04L341.91,441L344.25,440.79L348.7,438.17L351.55,437.72L352.93,435.99L351.98,433.39L350.43,432.49L344.94,433.34L343.09,431.77L342.96,429.15L340.85,425.65L342.95,425.38L343.62,427.15L349.85,427.11L356.58,420.86L362.15,419.59L366.44,416.75L372.35,407.26L372.79,408.45L376.98,409.24L376.55,410.21L378.38,411.92L385.3,411.89L392.9,407.64L396.08,410.63L399.64,411.14L400.42,415.55L403.32,417.7L404.93,420.77L407.15,421.52L410.66,421.08L412.32,418.61L415.99,419.76L416.53,418.35L420.96,415.16L425.04,406.41L426.76,405.55Z" fill="#dadada" stroke="#fff" stroke-width="0.5" id="PK-BA" data-name="Balochistan"/>
    <path d="M630.29,287L631.99,289.35L634.49,292L635.34,291.55L636.2,291.85L636.2,292.87L637.11,294.05L635.65,296.1L633.39,296.75L633.03,297.85L632.78,301.88L631.32,303.85L628.64,306.63L627.18,306.85L625.29,306.04L623.52,304.88L623.27,304.07L625.1,302.68L624.99,301.29L623.34,299.61L622,296.83L620.6,297.01L617.67,298.95L616.15,298.88L615.97,300.19L614.93,301.29L613.71,302.1L612.31,301.51L610.54,297.78L609.26,296.9L608.53,295.44L609.14,294.12L611.82,292.94L613.34,292.51L615.23,292.43L617.25,292.58L617.84,291.39L620.31,290.32L625.44,287.71L628.34,287.85Z" fill="#dadada" stroke="#fff" stroke-width="0.5" id="PK-IS" data-name="Islamabad"/>
</svg>